<svg version="1.1" xmlns="http://www.w3.org/2000/svg" xmlns:xlink="http://www.w3.org/1999/xlink" xmlns:i="http://ns.adobe.com/AdobeIllustrator/10.0/" xmlns:sketch="http://www.bohemiancoding.com/sketch/ns" height="200" width="200" x="0px" y="0px" viewBox="100 199 350 300" xml:space="preserve" preserveAspectRatio="xMidYMid meet" class=""><rect x="0px" y="0px" width="100px" height="100px" fill="rgb(255, 255, 255, 0)"></rect><g class="logo-container-box logoContainerBox" transform="scale(0.75) translate(106.66665903727215,80)"><g class="containerBody" transform="scale(0.9898375956295757) translate(-8.066617967311743,2.4640173899946944)"><g class="sampleIconBox" transform="scale(1) translate(0,0)"><g class="sampleIcons_1" transform="scale(1) translate(90.31199855804442,190)" fill="#440082"><switch><g i:extraneous="self"><rect x="38.892" y="80.554" width="27.771" height="5.558"></rect><path d="M22.224,38.886h11.107V27.778H22.224V38.886z M24.998,30.554h5.557v5.558h-5.557V30.554z"></path><path d="M22.224,55.55h11.107V44.443H22.224V55.55z M24.998,47.218h5.557v5.558h-5.557V47.218z"></path><path d="M22.224,72.222h11.107V61.114H22.224V72.222z M24.998,63.89h5.557v5.558h-5.557V63.89z"></path><path d="M22.224,88.886h11.107V77.778H22.224V88.886z M24.998,80.554h5.557v5.558h-5.557V80.554z"></path><path d="M88.888,58.333c0-7.759-4.544-14.453-11.115-17.574V11.115H77.77V11.11H58.326V8.342h-9.081    c0.476-0.819,0.753-1.769,0.753-2.784C49.998,2.488,47.51,0,44.44,0s-5.557,2.488-5.557,5.558c0,1.016,0.277,1.965,0.753,2.784    h-9.081v2.769H11.112v0.005v5.553v77.775V100h5.557h55.554h5.546h0.003V75.906C84.344,72.785,88.888,66.091,88.888,58.333z     M44.44,2.779c1.535,0,2.779,1.244,2.779,2.778c0,1.535-1.244,2.778-2.779,2.778c-1.534,0-2.778-1.243-2.778-2.778    C41.662,4.023,42.906,2.779,44.44,2.779z M72.224,94.443H16.669V16.668h13.886v5.554h27.771v-5.554h13.897v22.419    c-0.909-0.13-1.838-0.201-2.783-0.201c-6.607,0-12.441,3.299-15.956,8.336H38.892v5.558h11.912    c-0.523,1.76-0.809,3.623-0.809,5.554c0,1.932,0.285,3.796,0.81,5.557H38.892v5.558h14.597c3.514,5.034,9.347,8.331,15.952,8.331    c0.945,0,1.874-0.07,2.783-0.201V94.443z M77.772,72.778L77.772,72.778c-1.686,0.974-3.557,1.662-5.549,1.996l0,0    c-0.905,0.152-1.834,0.236-2.783,0.236c-4.94,0-9.377-2.15-12.431-5.563l0,0c-0.18-0.2-0.354-0.405-0.523-0.614    c-0.001-0.001-0.002-0.002-0.002-0.003c-0.169-0.208-0.333-0.421-0.492-0.637c0,0,0-0.001-0.001-0.001    c-0.956-1.303-1.728-2.75-2.276-4.303l0,0c-0.614-1.738-0.952-3.608-0.952-5.557s0.338-3.816,0.951-5.554l0,0    c0.365-1.035,0.829-2.022,1.382-2.952c0-0.001,0-0.001,0.001-0.002c0.137-0.23,0.278-0.456,0.426-0.68    c0.002-0.002,0.004-0.005,0.006-0.008c0.146-0.222,0.298-0.438,0.454-0.652c0.003-0.004,0.006-0.008,0.009-0.013    c0.156-0.212,0.317-0.421,0.483-0.626c0.003-0.004,0.007-0.009,0.01-0.013c0.168-0.207,0.34-0.409,0.518-0.607    c3.054-3.419,7.494-5.572,12.438-5.572c0.949,0,1.878,0.083,2.783,0.235l0,0c1.992,0.335,3.863,1.022,5.549,1.997    c4.988,2.883,8.347,8.271,8.347,14.446C86.119,64.508,82.761,69.896,77.772,72.778z"></path><rect x="38.892" y="30.554" width="27.771" height="5.558"></rect><path d="M77.773,50.715c-0.551,0-1.069,0.214-1.46,0.604l-9.649,9.647l-1.275-1.275c-0.024-0.025-0.048-0.05-0.065-0.066    l-2.754-2.755c-0.391-0.391-0.909-0.604-1.46-0.604c-1.139,0-2.065,0.926-2.065,2.064c0,0.551,0.215,1.069,0.605,1.46l5.554,5.557    c0.39,0.39,0.908,0.604,1.46,0.604c0.551,0,1.069-0.215,1.46-0.604l5.531-5.53c0.02-0.018,0.039-0.037,0.039-0.038l2.717-2.716    c0.038-0.036,0.073-0.071,0.094-0.094l2.729-2.729c0.391-0.39,0.605-0.908,0.605-1.46C79.838,51.641,78.912,50.715,77.773,50.715z    "></path></g></switch></g></g><g class="sampleTexts_1" transform="scale(1) translate(0.000006103515630684342,0)"><g class="logo--name svgLogoName_1 logoNameBox" transform="scale(1) translate(198.4,240)" fill="#241570"><path d="M 0 0 l 1 0" stroke="white" stroke-width="0" fill="none"></path></g><g id="" class="logo--name svgSloganText_1 sloganBox" transform="scale(1) translate(198.4,254.4)" fill="#241570"><path d=""></path></g></g></g></g></svg>