<svg version="1.1" xmlns="http://www.w3.org/2000/svg" xmlns:xlink="http://www.w3.org/1999/xlink" xmlns:i="http://ns.adobe.com/AdobeIllustrator/10.0/" xmlns:sketch="http://www.bohemiancoding.com/sketch/ns" height="100%" width="100%" x="0px" y="0px" viewBox="180 150 280 180" xml:space="preserve" preserveAspectRatio="xMidYMid meet" class=""><rect x="0px" y="0px" width="100%" height="100%" fill="rgb(255, 255, 255, 0)"></rect><g class="logo-container-box logoContainerBox" transform="scale(0.75) translate(106.66668192545575,80.00000762939453)"><g class="containerBody" transform="scale(1.12) translate(-34.285714285714334,-25.68430219377791)"><g class="sampleIconBox" transform="scale(1) translate(0,0)"><g class="sampleIcons_1" transform="scale(1) translate(269.9999990463257,130.4)" fill="#f6f9c1"><switch><g i:extraneous="self"><rect x="38.892" y="80.554" width="27.771" height="5.558"></rect><path d="M22.224,38.886h11.107V27.778H22.224V38.886z M24.998,30.554h5.557v5.558h-5.557V30.554z"></path><path d="M22.224,55.55h11.107V44.443H22.224V55.55z M24.998,47.218h5.557v5.558h-5.557V47.218z"></path><path d="M22.224,72.222h11.107V61.114H22.224V72.222z M24.998,63.89h5.557v5.558h-5.557V63.89z"></path><path d="M22.224,88.886h11.107V77.778H22.224V88.886z M24.998,80.554h5.557v5.558h-5.557V80.554z"></path><path d="M88.888,58.333c0-7.759-4.544-14.453-11.115-17.574V11.115H77.77V11.11H58.326V8.342h-9.081    c0.476-0.819,0.753-1.769,0.753-2.784C49.998,2.488,47.51,0,44.44,0s-5.557,2.488-5.557,5.558c0,1.016,0.277,1.965,0.753,2.784    h-9.081v2.769H11.112v0.005v5.553v77.775V100h5.557h55.554h5.546h0.003V75.906C84.344,72.785,88.888,66.091,88.888,58.333z     M44.44,2.779c1.535,0,2.779,1.244,2.779,2.778c0,1.535-1.244,2.778-2.779,2.778c-1.534,0-2.778-1.243-2.778-2.778    C41.662,4.023,42.906,2.779,44.44,2.779z M72.224,94.443H16.669V16.668h13.886v5.554h27.771v-5.554h13.897v22.419    c-0.909-0.13-1.838-0.201-2.783-0.201c-6.607,0-12.441,3.299-15.956,8.336H38.892v5.558h11.912    c-0.523,1.76-0.809,3.623-0.809,5.554c0,1.932,0.285,3.796,0.81,5.557H38.892v5.558h14.597c3.514,5.034,9.347,8.331,15.952,8.331    c0.945,0,1.874-0.07,2.783-0.201V94.443z M77.772,72.778L77.772,72.778c-1.686,0.974-3.557,1.662-5.549,1.996l0,0    c-0.905,0.152-1.834,0.236-2.783,0.236c-4.94,0-9.377-2.15-12.431-5.563l0,0c-0.18-0.2-0.354-0.405-0.523-0.614    c-0.001-0.001-0.002-0.002-0.002-0.003c-0.169-0.208-0.333-0.421-0.492-0.637c0,0,0-0.001-0.001-0.001    c-0.956-1.303-1.728-2.75-2.276-4.303l0,0c-0.614-1.738-0.952-3.608-0.952-5.557s0.338-3.816,0.951-5.554l0,0    c0.365-1.035,0.829-2.022,1.382-2.952c0-0.001,0-0.001,0.001-0.002c0.137-0.23,0.278-0.456,0.426-0.68    c0.002-0.002,0.004-0.005,0.006-0.008c0.146-0.222,0.298-0.438,0.454-0.652c0.003-0.004,0.006-0.008,0.009-0.013    c0.156-0.212,0.317-0.421,0.483-0.626c0.003-0.004,0.007-0.009,0.01-0.013c0.168-0.207,0.34-0.409,0.518-0.607    c3.054-3.419,7.494-5.572,12.438-5.572c0.949,0,1.878,0.083,2.783,0.235l0,0c1.992,0.335,3.863,1.022,5.549,1.997    c4.988,2.883,8.347,8.271,8.347,14.446C86.119,64.508,82.761,69.896,77.772,72.778z"></path><rect x="38.892" y="30.554" width="27.771" height="5.558"></rect><path d="M77.773,50.715c-0.551,0-1.069,0.214-1.46,0.604l-9.649,9.647l-1.275-1.275c-0.024-0.025-0.048-0.05-0.065-0.066    l-2.754-2.755c-0.391-0.391-0.909-0.604-1.46-0.604c-1.139,0-2.065,0.926-2.065,2.064c0,0.551,0.215,1.069,0.605,1.46l5.554,5.557    c0.39,0.39,0.908,0.604,1.46,0.604c0.551,0,1.069-0.215,1.46-0.604l5.531-5.53c0.02-0.018,0.039-0.037,0.039-0.038l2.717-2.716    c0.038-0.036,0.073-0.071,0.094-0.094l2.729-2.729c0.391-0.39,0.605-0.908,0.605-1.46C79.838,51.641,78.912,50.715,77.773,50.715z    "></path></g></switch></g></g><g class="sampleTexts_1" transform="scale(1) translate(0,-0.000006103515630684342)"><g class="logo--name svgLogoName_1 logoNameBox" transform="scale(1) translate(151.88500244915485,300.23000106811526)" fill="#0084ff"><path d="M6.47-47.74L6.47-47.74L7.31-47.74L7.31-47.74Q10.83-47.74 20.25-46.83L20.25-46.83L28.05-46.62L28.27-46.62L28.27-46.62Q33.61-46.62 36.07-47.11L36.07-47.11L36.07-47.11Q36.91-43.95 36.91-39.52L36.91-39.52L36.91-39.16L36.91-39.16Q36.91-37.27 36.07-37.27L36.07-37.27L35.79-36.98L35.79-36.98Q35.79-36.70 36.63-36.35L36.63-36.35L36.77-36.35L36.77-36.07L36.77-36.07Q36.35-35.44 34.31-35.30L34.31-35.30L34.31-35.30Q32.63-35.30 32.63-36.42L32.63-36.42L32.55-38.11L32.63-41.34L32.63-41.34Q32.63-41.98 28.48-41.98L28.48-41.98L24.26-41.98L21.87-42.05L21.87-42.05Q21.23-42.05 20.88-30.52L20.88-30.52L20.88-30.52Q20.46-21.02 20.46-17.65L20.46-17.65L20.46-15.54L20.46-15.54Q20.46-14.63 19.83-13.64L19.83-13.64L19.83-13.57L19.83-13.57Q20.39-13.57 20.46-12.09L20.46-12.09L20.25-11.04L20.11-11.04L20.11-11.11L20.11-11.53L19.97-6.05L19.97-6.05Q19.97-5.20 26.93-4.57L26.93-4.57L26.93-4.57Q28.27-4.08 28.27-3.23L28.27-3.23L28.27-3.23Q27.70-1.97 27.70-0.07L27.70-0.07L27.70-0.07Q27.49-0.07 27.49 0.63L27.49 0.63L27.21 0.91L27.21 0.91Q19.69 0.49 13.36 0.49L13.36 0.49L11.74 0.49L11.74 0.49Q8.51 0.49 6.75 0.77L6.75 0.77L6.75 0.77Q6.61 0.49 6.19-3.87L6.19-3.87L6.26-3.87L7.24-3.45L7.31-3.45L7.59-3.66L7.59-3.73L7.59-3.73Q7.45-4.08 6.89-4.08L6.89-4.08L6.68-4.29L6.68-4.43L6.68-4.43Q6.68-4.64 9.77-5.20L9.77-5.20L9.77-5.20Q9.77-5.41 14.70-5.48L14.70-5.48L14.70-5.48Q15.26-5.48 15.47-10.05L15.47-10.05L15.82-14.55L15.82-14.55Q15.19-20.39 15.19-21.80L15.19-21.80L14.41-35.72L14.41-37.55L14.55-40.15L14.41-41.06L14.70-41.63L14.70-41.98L14.70-41.98Q14.70-42.61 9.14-42.68L9.14-42.68L9.14-42.68Q5.13-42.47 5.13-42.12L5.13-42.12L5.13-42.12Q4.50-40.50 3.87-37.27L3.87-37.27L3.38-36.84L3.23-36.91L2.74-36.91L2.74-36.91Q2.46-36.63 2.11-36.63L2.11-36.63L0.14-36.49L0.14-36.49Q0.14-37.83 0.18-39.27L0.18-39.27L0.18-39.27Q0.21-40.71 0.25-41.48L0.25-41.48L0.25-41.48Q0.28-42.26 0.28-42.61L0.28-42.61L-0.07-45.28L-0.07-45.28Q-0.07-46.13 0.98-46.27L0.98-46.27L1.83-47.11L2.18-47.11L2.81-46.27L2.95-46.27L2.95-46.27Q4.15-47.74 6.47-47.74ZM22.43-45.07L22.22-45.07L22.01-44.86L22.01-44.86Q22.01-44.51 24.26-44.37L24.26-44.37L24.26-44.37Q25.45-44.51 25.45-44.65L25.45-44.65L25.45-44.79L25.45-44.79Q24.61-45.07 22.43-45.07L22.43-45.07ZM31.71-42.82L31.43-43.10L30.73-43.10L30.73-43.03L30.73-43.03Q30.87-42.68 31.29-42.68L31.29-42.68L31.71-42.68L31.71-42.82ZM33.19-43.03L33.19-43.10L32.84-43.10L32.84-42.82L33.05-42.82L33.19-43.03ZM18-41.34L18-41.34L18-41.27L18.21-41.06L18.21-41.06Q18.91-41.06 19.62-41.98L19.62-41.98L19.62-42.12L19.27-42.19L19.27-42.19Q18.63-42.19 18-41.34ZM3.16-41.98L3.09-41.98L2.74-41.63L2.74-41.06L2.95-40.78L3.09-40.78L3.45-41.13L3.45-41.63L3.16-41.98ZM15.82-41.41L15.82-41.41L15.82-41.06L15.82-41.06Q16.03-40.01 16.24-40.01L16.24-40.01L16.24-40.01Q16.59-40.01 16.80-40.78L16.80-40.78L16.80-41.27L16.80-41.27Q16.80-41.70 16.31-41.98L16.31-41.98L16.31-41.98Q15.82-41.98 15.82-41.41ZM34.52-41.34L34.31-41.63L34.17-41.63L33.96-40.71L34.31-40.57L34.52-40.78L34.52-41.34ZM18.70-38.11L18.70-39.09L18.63-39.09L18.49-38.25L18.49-37.13L18.63-37.13L18.70-38.11ZM33.96-37.13L33.89-37.13L33.75-36.98L33.75-36.63L33.89-36.63L34.17-36.91L34.17-36.98L33.96-37.13ZM19.76-27.70L19.34-32.77L19.20-32.77L19.05-30.23L19.05-28.55L19.05-28.55Q19.05-26.79 19.41-26.79L19.41-26.79L19.55-26.79L19.76-27.70ZM16.31-30.30L16.31-30.66L16.17-30.45L16.24-30.30L16.31-30.30ZM17.30-23.34L17.09-25.38L16.88-25.38L16.88-25.38Q16.45-23.63 16.45-21.59L16.45-21.59L16.45-20.74L16.45-20.74Q16.45-17.37 17.09-17.37L17.09-17.37L17.09-17.37Q17.30-17.37 17.37-18.49L17.37-18.49L16.95-21.80L17.30-23.34ZM17.65-15.54L17.65-15.54L17.37-15.54L17.37-14.34L18-13.29L18-13.64L18-13.64Q18-15.54 17.65-15.54ZM11.39-4.43L11.04-4.43L10.69-4.08L10.69-3.73L10.69-3.73Q10.69-3.59 10.97-3.59L10.97-3.59L12.45-3.73L12.45-3.94L12.45-3.94Q12.16-4.43 11.39-4.43L11.39-4.43ZM9.63-3.94L9.35-4.15L9.14-4.15L9-3.94L9.21-3.73L9.49-3.73L9.63-3.94ZM24.26-3.16L24.26-3.16L24.26-3.16Q25.31-2.88 26.72-2.88L26.72-2.88L26.86-3.02L26.86-3.23L26.16-3.45L24.75-3.45L24.75-3.45Q24.26-3.38 24.26-3.16ZM23.34-2.25L22.92-2.25L22.64-1.97L22.64-1.97Q22.85-1.48 23.34-1.48L23.34-1.48L23.77-1.48L23.77-1.48Q24.19-1.48 24.33-1.69L24.33-1.69L24.33-1.83L24.33-1.83Q24.33-2.11 23.34-2.25L23.34-2.25ZM16.59-2.11L16.17-2.11L15.54-1.97L15.54-1.69L16.17-1.62L17.16-1.62L17.16-1.62Q17.58-1.62 17.65-1.90L17.65-1.90L17.65-1.90Q17.30-2.11 16.59-2.11L16.59-2.11ZM12.66-1.83L11.25-1.83L10.90-1.69L10.90-1.48L12.02-1.27L12.94-1.48L12.94-1.55L12.66-1.83ZM8.09-0.49L8.09-0.49L8.09-0.35L8.30-0.21L8.44-0.21L8.44-0.21Q8.93-0.49 8.93-1.20L8.93-1.20L8.93-1.27L8.72-1.48L8.65-1.48L8.65-1.48Q8.09-1.13 8.09-0.49ZM26.86-1.13L26.65-1.27L26.37-0.98L26.37-0.77L26.65-0.63L26.86-0.91L26.86-1.13ZM53.44-46.76L53.44-46.76L53.44-46.76Q57.59-46.20 57.59-45.21L57.59-45.21L60.96-35.16L63.21-27.14L63.21-27.14Q64.76-19.97 67.22-11.67L67.22-11.67L67.22-11.67Q67.36-11.74 67.50-11.74L67.50-11.74L67.50-11.04L67.43-11.04L67.43-11.04Q67.50-10.83 67.61-10.55L67.61-10.55L67.61-10.55Q67.71-10.27 67.71-10.13L67.71-10.13L69.05-7.24L69.40-5.48L69.26-4.71L69.26-4.71Q70.03-4.15 71.02-4.08L71.02-4.08L72.42-4.08L72.49-4.08L72.49-4.08Q73.27-3.94 73.41-3.73L73.41-3.73L72.98-2.88L73.05-1.69L73.05-1.69Q73.05-0.91 72.35-0.21L72.35-0.21L72.07-0.21L72.07-0.21Q71.51-0.77 71.16-0.77L71.16-0.77L71.02-0.77L71.02-0.77Q70.31-0.77 70.24-0.35L70.24-0.35L70.24-0.35Q70.24-0.14 71.51-0.07L71.51-0.07L71.51 0.14L71.51 0.14Q71.51 0.42 70.66 0.49L70.66 0.49L69.75 0.21L69.05 0.21L64.69 0.63L64.69 0.63Q63.21 0.63 61.03-1.13L61.03-1.13L61.59-1.69L61.59-1.97L60.89-3.45L60.89-3.45Q60.89-4.29 63.49-4.29L63.49-4.29L63.56-4.43L63.56-4.71L63.56-4.71Q63.56-7.88 60.68-11.81L60.68-11.81L60.61-11.81L60.61-11.81Q53.30-11.25 43.52-10.34L43.52-10.34L41.98-10.34L41.98-10.34Q41.70-10.05 40.08-4.71L40.08-4.71L40.08-4.71Q40.36-4.43 40.85-4.43L40.85-4.43L42.26-4.43L42.26-4.43Q44.72-4.43 46.48-2.46L46.48-2.46L46.48-2.39L46.48-2.39Q46.48-1.90 44.65-0.49L44.65-0.49L44.65-0.49Q44.65 0.28 33.96 0.28L33.96 0.28L33.96 0.28Q32.20 0.21 32.20-0.14L32.20-0.14L32.48-1.05L32.48-1.13L32.48-1.13Q32.48-1.41 31.92-2.39L31.92-2.39L31.92-2.39Q31.92-2.81 33.19-3.45L33.19-3.45L33.26-3.66L33.26-4.71L33.26-4.71Q33.26-5.34 33.96-5.34L33.96-5.34L34.24-5.06L33.96-4.22L34.03-4.15L34.10-4.15L34.10-4.15Q34.95-5.34 34.95-5.84L34.95-5.84L34.95-6.12L34.95-6.12Q34.95-6.54 34.73-6.54L34.73-6.54L34.73-6.54Q35.44-7.80 35.86-9.91L35.86-9.91L39.52-20.04L40.85-23.34L40.85-23.34Q40.85-23.98 42.12-25.45L42.12-25.45L42.12-25.59L41.91-26.30L41.91-26.30Q42.68-26.86 42.68-27.21L42.68-27.21L42.47-27.42L42.47-27.42Q42.47-28.13 43.31-28.90L43.31-28.90L43.24-29.39L46.48-38.88L46.48-38.88Q47.67-40.99 48.66-43.95L48.66-43.95L48.66-43.95Q48.87-43.95 49.71-45.28L49.71-45.28L49.71-45.28Q52.59-46.69 53.44-46.76ZM43.31-15.47L43.31-15.47L43.31-15.12L43.52-14.98L43.52-14.98Q52.73-16.45 58.01-16.45L58.01-16.45L60.89-16.45L61.10-16.73L61.10-16.80L61.10-16.80Q60.75-19.34 59.84-19.34L59.84-19.34L55.41-32.70L55.41-32.70Q54.63-35.58 53.86-37.34L53.86-37.34L53.86-37.34Q53.51-38.18 53.02-38.53L53.02-38.53L53.02-38.53Q53.02-37.83 52.95-37.05L52.95-37.05L52.95-37.05Q48.02-27.21 45.84-23.70L45.84-23.70L45.84-23.70Q44.72-21.52 43.31-15.47ZM70.03-1.97L70.03-1.97L70.03-1.83L70.10-1.83L70.10-1.83Q71.51-1.83 71.51-2.25L71.51-2.25L71.16-2.53L71.16-2.53Q70.59-2.53 70.03-1.97ZM52.73-39.87L52.73-39.87L52.80-39.87L52.80-39.87Q53.44-39.87 53.44-40.43L53.44-40.43L53.44-40.71L53.23-40.71L53.23-40.71Q52.73-40.43 52.73-39.87ZM54.84-45.70L54.84-45.70L54.49-45.70L54.49-45.35L54.70-45.14L55.27-45.14L55.41-45.28L55.41-45.35L55.41-45.35Q55.27-45.70 54.84-45.70ZM56.74-15.33L55.69-15.33L55.55-15.05L55.69-14.91L56.04-14.91L56.04-14.91Q56.67-14.91 56.74-15.19L56.74-15.19L56.74-15.33ZM66.73-9.28L66.73-9.42L64.69-9.42L64.69-9.14L66.73-9.28ZM39.80-9.70L39.59-9.77L39.45-9.77L39.38-9.35L39.45-9L39.59-9L39.80-9.21L39.80-9.70ZM64.13 0.21L64.13 0.21L64.13 0.35L64.41 0.35L64.41 0.35Q64.83 0.35 64.90 0.07L64.90 0.07L64.76-0.14L64.76-0.14Q64.27-0.14 64.13 0.21ZM36.98-9.14L36.84-9.28L36.35-8.86L36.35-8.65L36.35-8.65Q36.91-8.65 36.98-9.14L36.98-9.14ZM60.19-17.16L60.05-17.65L60.33-18L60.40-17.93L60.40-17.37L60.19-17.16ZM44.72-26.02L44.72-26.16L44.51-27.56L44.44-27.14L44.44-26.93L44.51-26.93L44.51-26.93Q44.72-25.73 44.72-26.02L44.72-26.02ZM68.20-5.20L67.99-5.41L67.92-5.41L67.92-4.92L68.13-4.71L68.20-4.71L68.20-5.20ZM36.49-4.43L36.35-4.71L36.07-4.64L36.07-4.43L36.28-4.22L36.35-4.22L36.49-4.43ZM53.23-43.17L53.02-43.31L52.95-43.31L52.95-43.17L53.09-42.96L53.23-42.96L53.23-43.17ZM50.41-13.71L50.41-13.92L50.20-13.92L50.20-13.71L50.41-13.71ZM44.02-25.17L44.02-25.38L43.95-25.38L43.95-25.17L44.02-25.17ZM89.23-48.38L89.23-48.38L93.87-47.46L93.87-47.46Q95.06-47.46 97.95-45.42L97.95-45.42L98.23-45.42L98.23-45.42Q98.30-48.16 98.72-48.16L98.72-48.16L98.72-48.16Q100.83-47.39 101.25-47.39L101.25-47.39L102.66-47.39L103.78-47.46L103.92-47.25L103.85-46.83L103.85-37.83L103.85-37.83Q103.85-37.05 103.36-36.56L103.36-36.56L103.36-36.56Q103.92-36 103.92-35.51L103.92-35.51L103.92-35.51Q103.92-35.02 103.50-34.31L103.50-34.31L103.71-33.12L103.71-33.12Q103.71-32.27 103.29-32.27L103.29-32.27L101.46-32.55L101.39-32.55L100.41-32.27L100.27-32.27L100.27-32.27Q99.98-32.27 99.35-35.30L99.35-35.30L99.35-35.30Q99.35-36.28 98.51-37.05L98.51-37.05L98.51-37.05Q97.59-38.39 97.59-38.88L97.59-38.88L98.02-39.02L98.02-39.09L98.02-39.09Q96.96-39.94 96.75-40.99L96.75-40.99L96.75-40.99Q93.87-43.88 91.83-43.88L91.83-43.88L91.34-43.88L91.34-43.88Q90.56-43.88 84.30-42.40L84.30-42.40L84.30-42.40Q83.74-41.98 82.48-39.73L82.48-39.73L82.48-39.73Q81.14-37.97 81.14-36.35L81.14-36.35L81.14-36.35Q81.56-31.85 82.27-31.85L82.27-31.85L82.27-31.85Q83.18-29.46 84.45-28.97L84.45-28.97L84.45-28.97Q84.66-28.62 86.13-28.27L86.13-28.27L86.13-28.27Q87.12-27.35 90.28-26.02L90.28-26.02L90.28-26.02Q90.28-25.73 90.98-25.66L90.98-25.66L91.83-25.95L91.83-25.95Q92.39-25.80 92.39-25.66L92.39-25.66L92.39-25.59L92.11-25.31L92.11-25.10L92.11-25.10Q93.09-23.91 94.50-23.91L94.50-23.91L94.50-23.98L93.16-25.10L93.16-25.17L93.16-25.17Q93.80-25.17 97.66-22.71L97.66-22.71L97.66-22.71Q103.50-17.30 103.50-15.82L103.50-15.82L103.50-15.82Q104.48-11.53 104.48-10.48L104.48-10.48L104.48-10.48Q103.85-5.13 103.29-5.13L103.29-5.13L101.60-2.18L101.60-2.18Q96.75 0.77 95.91 0.77L95.91 0.77L95.91 0.77Q87.82-0.98 85.15-2.04L85.15-2.04L85.15-2.04Q79.66-7.17 79.66-8.09L79.66-8.09L79.38-8.30L79.24-8.23L79.24-7.88L79.24-3.94L79.24-3.94Q79.24-3.45 76.71-3.45L76.71-3.45L75.45-3.45L74.39-3.09L74.39-3.09Q73.90-3.09 73.13-3.87L73.13-3.87L73.13-3.94L73.48-4.50L73.48-4.50Q73.97-16.31 74.67-16.31L74.67-16.31L74.81-16.31L76.08-16.10L76.08-16.10Q76.43-16.10 76.78-16.31L76.78-16.31L77.70-16.10L78.19-16.24L78.47-16.24L78.47-16.24Q78.75-16.10 79.73-14.20L79.73-14.20L79.73-14.20Q82.41-10.83 84.52-7.73L84.52-7.73L84.52-7.73Q84.80-7.73 86.27-5.84L86.27-5.84L90.63-3.94L91.90-3.94L91.90-3.66L92.04-3.66L92.39-3.87L92.53-3.87L92.53-3.87Q93.09-3.45 93.59-3.45L93.59-3.45L94.01-3.45L94.01-3.45Q95.91-3.52 95.91-3.94L95.91-3.94L95.91-4.08L94.50-4.08L93.66-4.15L93.66-4.15Q93.73-4.43 98.65-5.20L98.65-5.20L98.65-5.20Q99.77-5.20 100.83-9.14L100.83-9.14L100.83-9.14Q100.83-10.41 101.46-10.97L101.46-10.97L101.46-11.25L101.46-11.25Q100.27-14.98 98.79-16.10L98.79-16.10L98.79-16.10Q97.95-17.58 92.39-19.55L92.39-19.55L92.39-19.55Q88.73-20.95 86.48-22.85L86.48-22.85L86.48-22.85Q83.18-23.84 82.69-25.03L82.69-25.03L82.69-25.03Q82.27-25.95 79.45-28.05L79.45-28.05L79.45-28.05Q78.19-31.92 76.71-34.03L76.71-34.03L76.71-34.03Q75.94-37.13 75.94-40.57L75.94-40.57L75.94-40.57Q76.50-42.89 81-46.97L81-46.97L81-46.97Q83.60-48.38 89.23-48.38ZM81-45.91L81-45.91L81.84-45.91L81.84-45.91Q82.41-45.91 87.05-47.11L87.05-47.11L87.05-47.11Q88.73-47.39 88.73-47.67L88.73-47.67L88.45-47.74L88.45-47.74Q81-47.11 81-45.91ZM99.56-46.83L99.56-46.83L99.49-46.55L99.49-46.34L99.49-46.34Q99.49-45.91 100.05-45.91L100.05-45.91L101.25-45.91L101.25-45.98L101.25-45.98Q100.55-46.83 99.56-46.83ZM83.11-43.31L83.11-43.31L83.25-43.31L83.25-43.31Q83.95-43.31 86.55-44.58L86.55-44.58L88.45-45.28L88.45-45.21L88.24-44.79L88.80-44.79L89.23-44.93L89.23-45.21L89.09-45.42L89.09-45.84L88.95-45.84L88.95-45.84Q86.13-45 84.30-44.09L84.30-44.09L84.30-44.09Q83.11-43.88 83.11-43.31ZM94.99-45.28L94.99-45.28L93.80-45.28L93.80-45.28Q93.80-45.14 95.91-44.58L95.91-44.58L96.26-44.58L96.40-44.65L96.40-44.79L96.40-44.79Q96.19-45.28 94.99-45.28ZM99.98-45.21L99.84-45.21L99.70-44.93L99.70-44.79L99.77-44.37L99.98-44.37L100.20-44.58L100.20-44.93L99.98-45.21ZM81.35-44.23L81.35-44.23L81.35-44.16L81.35-44.16Q81.35-43.95 81.63-43.95L81.63-43.95L81.63-43.95Q81.98-44.09 82.13-44.44L82.13-44.44L82.13-44.58L82.13-44.58Q81.49-44.58 81.35-44.23ZM97.31-43.88L97.31-43.88L97.66-43.52L98.02-43.52L98.23-43.73L98.23-43.95L98.23-43.95Q98.23-44.16 97.66-44.37L97.66-44.37L97.66-44.37Q97.31-44.23 97.31-43.88ZM100.90-42.89L100.90-42.89L101.11-42.75L101.11-42.68L100.83-42.33L100.83-42.12L100.83-42.12Q100.83-41.98 101.39-41.77L101.39-41.77L101.39-41.77Q101.53-41.20 101.81-41.13L101.81-41.13L102.02-41.13L102.02-41.41L101.95-41.63L101.95-41.91L102.16-41.91L102.52-41.63L102.66-41.63L102.73-42.05L102.73-42.19L102.73-42.19Q102.23-44.16 102.02-44.16L102.02-44.16L101.60-44.16L101.60-44.16Q100.90-43.88 100.90-42.89ZM80.93-41.13L80.93-41.13L81.35-40.71L81.49-40.71L81.49-40.71Q82.34-40.85 83.04-41.63L83.04-41.63L82.83-41.77L82.05-41.77L82.05-41.77Q81.28-41.77 80.93-41.13ZM77.98-41.70L77.84-41.70L77.63-41.48L77.63-41.41L77.98-41.41L77.98-41.70ZM79.73-38.39L79.73-38.39L79.73-38.32L79.88-38.32L79.88-38.32Q81.14-39.52 81.14-40.43L81.14-40.43L80.93-40.64L80.93-40.64Q80.09-40.64 79.73-38.39ZM102.73-40.15L102.66-40.43L102.30-40.43L102.30-40.29L102.30-40.29Q102.52-39.87 102.73-39.87L102.73-39.87L102.73-40.15ZM101.95-39.73L101.95-39.94L101.74-39.73L101.95-39.73ZM101.11-39.59L100.83-39.59L100.55-39.38L100.55-39.30L100.83-39.02L101.11-39.02L101.39-39.30L101.39-39.38L101.11-39.59ZM102.66-38.88L102.45-38.88L102.16-38.67L102.16-38.18L102.23-37.69L102.45-37.69L102.66-38.88ZM101.25-37.55L100.97-37.69L100.83-37.69L100.83-37.55L100.97-37.34L101.25-37.34L101.25-37.55ZM100.76-35.79L100.76-35.79L100.76-34.66L100.90-34.52L100.97-34.52L100.97-34.52Q101.53-34.52 101.60-35.02L101.60-35.02L101.60-35.02Q101.25-35.86 101.25-36.42L101.25-36.42L101.11-36.42L101.11-36.42Q100.76-36.28 100.76-35.79ZM101.25-33.54L101.11-33.54L100.90-33.33L101.25-33.12L101.46-33.12L101.53-33.33L101.25-33.54ZM79.45-30.52L79.45-30.52L79.45-30.02L79.73-29.74L80.30-29.74L80.30-30.02L80.30-30.02Q79.80-30.52 79.45-30.52ZM80.79-28.62L80.79-28.62L80.72-28.62L80.72-28.27L80.72-28.27Q82.20-27.21 82.69-27.21L82.69-27.21L82.97-27.21L82.97-27.49L82.97-27.49Q81.98-28.20 80.79-28.62ZM89.79-26.02L89.58-26.23L88.95-26.23L88.95-26.23Q89.02-25.95 89.51-25.95L89.51-25.95L89.79-25.95L89.79-26.02ZM90.28-25.17L90.28-25.17L90.07-25.03L90.07-25.03Q90.35-24.61 92.39-23.70L92.39-23.70L92.39-23.98L92.39-23.98Q91.41-24.89 90.28-25.17ZM91.90-20.95L91.90-20.95L91.55-20.95L91.55-20.60L91.55-20.60Q92.46-20.18 93.80-20.11L93.80-20.11L93.80-20.11Q93.80-19.83 94.29-19.83L94.29-19.83L94.85-19.83L94.85-19.90L94.85-19.90Q94.85-20.53 91.90-20.95ZM96.75-18.84L96.61-19.05L96.40-19.05L96.40-18.84L96.61-18.63L96.75-18.63L96.75-18.84ZM75.45-11.81L75.45-11.81L75.16-11.81L75.16-11.81Q74.81-10.76 74.81-9.14L74.81-9.14L74.95-8.23L75.02-8.23L75.02-8.23Q75.66-8.23 75.66-8.79L75.66-8.79L75.66-8.79Q75.45-10.41 75.45-11.81ZM76.92-9.77L76.92-9.77L76.92-9.77Q76.57-8.58 76.15-8.23L76.15-8.23L76.43-7.45L76.43-5.63L76.43-5.20L76.43-5.20Q76.43-4.71 76.71-4.71L76.71-4.71L77.13-4.71L77.34-4.92L77.34-5.20L77.34-5.20Q77.34-9.77 76.92-9.77ZM80.79-8.02L80.79-8.02L80.72-8.02L80.72-7.88L80.72-7.88Q81-6.75 81.77-6.75L81.77-6.75L81.77-6.89L81.77-6.89Q81.28-8.02 80.79-8.02ZM75.02-6.47L75.02-6.47L75.16-6.33L75.23-6.33L75.23-6.33Q75.45-6.33 75.59-7.73L75.59-7.73L75.45-7.88L75.45-7.88Q75.16-7.88 75.02-6.47ZM83.25-7.38L83.25-7.38L83.11-7.38L83.11-7.31L83.11-7.31Q83.67-6.26 84.23-6.26L84.23-6.26L84.23-6.47L84.23-6.47Q83.67-7.10 83.25-7.38ZM101.81-6.19L101.46-6.19L101.11-5.84L101.39-5.55L101.74-5.55L102.02-5.84L102.02-5.98L101.81-6.19ZM87.40-4.57L87.40-4.57L87.40-4.50L87.40-4.50Q87.54-4.15 87.89-4.15L87.89-4.15L87.89-4.15Q87.75-4.57 87.40-4.57ZM84.02-4.43L84.02-4.43L83.53-4.50L83.53-4.43L83.53-4.43Q84.23-2.88 87.05-2.04L87.05-2.04L87.05-2.04Q89.37-1.20 93.59-0.28L93.59-0.28L93.59-0.28Q94.43 0.28 95.06 0.35L95.06 0.35L95.70 0.35L95.70 0.35Q97.45-0.14 97.45-0.91L97.45-0.91L91.13-1.41L91.13-1.41Q85.57-3.16 84.02-4.43ZM96.40-2.39L96.40-2.39L96.40-2.25L96.61-2.11L96.96-2.11L96.96-2.11Q99.49-2.11 99.77-2.81L99.77-2.81L99.49-2.95L99.07-2.95L99.07-2.95Q98.30-2.95 96.40-2.39ZM94.71-0.63L94.29-0.63L94.29-0.91L94.43-0.91L94.43-0.91Q94.92-0.91 94.92-0.63L94.92-0.63L94.71-0.63ZM113.06-47.46L113.06-47.46L116.44-47.46L116.44-47.46Q120.16-47.46 120.94-46.48L120.94-46.48L121.43-46.48L121.43-46.27L121.43-46.27Q120.30-45.35 120.30-42.05L120.30-42.05L120.30-42.05Q120.30-38.60 119.53-31.50L119.53-31.50L119.60-31.50L124.73-36.35L124.73-36.35Q130.78-41.55 130.78-42.54L130.78-42.54L130.78-42.54Q132.89-45.49 132.89-45.91L132.89-45.91L132.75-45.91L131.48-46.05L131.48-46.20L131.48-46.20Q131.48-46.69 134.86-46.69L134.86-46.69L141.82-46.69L141.82-46.69Q143.37-46.69 143.37-45.70L143.37-45.70L144.77-45.35L144.91-45.21L144.91-45.21Q144.91-45 143.51-44.65L143.51-44.65L143.51-44.30L143.51-44.30Q143.72-44.02 143.72-43.45L143.72-43.45L143.72-43.31L143.72-43.31Q143.72-41.13 143.02-41.13L143.02-41.13L142.03-41.41L140.98-41.41L140.98-41.41Q138.66-41.41 136.69-39.23L136.69-39.23L136.69-39.23Q130.43-34.03 128.60-33.05L128.60-33.05L128.60-33.05Q125.79-30.45 125.79-30.09L125.79-30.09L125.79-30.02L125.79-30.02Q126-27.77 128.60-24.68L128.60-24.68L128.60-24.68Q131.34-19.62 133.88-14.20L133.88-14.20L133.88-14.20Q134.72-13.08 135.42-11.32L135.42-11.32L135.42-11.32Q137.60-7.10 138.16-7.10L138.16-7.10L139.01-6.96L139.01-6.68L139.01-6.68Q138.66-6.33 138.66-6.12L138.66-6.12L139.22-5.98L141.75-5.98L141.75-5.98Q146.04-5.98 146.04-5.48L146.04-5.48L145.83-5.20L145.83-5.06L145.83-5.06Q145.83-4.78 146.32-4.71L146.32-4.71L146.53-4.43L145.83-3.02L145.83-2.81L146.25-0.56L146.25-0.56Q146.25 0 145.55 0.42L145.55 0.42L145.55 0.42Q145.55 0.21 135.91-0.21L135.91-0.21L135.91-0.21Q131.34-0.56 131.34-1.05L131.34-1.05L131.34-1.27L131.34-1.27Q132.33-1.83 132.33-2.32L132.33-2.32L132.19-2.32L132.05-2.60L132.05-2.60Q132.26-3.94 132.26-5.20L132.26-5.20L132.26-5.20Q132.26-7.03 130.71-10.41L130.71-10.41L129.59-14.06L129.59-14.06Q129.23-14.34 124.80-23.48L124.80-23.48L124.80-23.48Q122.77-26.44 122.34-26.72L122.34-26.72L122.13-26.72L122.13-26.72Q118.69-23.06 118.69-22.92L118.69-22.92L118.69-22.92Q118.69-21.38 117.84-17.44L117.84-17.44L117.98-16.66L117.28-14.63L117.28-14.55L117.28-14.55Q117.28-14.27 117.84-13.57L117.84-13.57L117.84-13.57Q117.77-8.44 117.21-8.44L117.21-8.44L117.21-8.44Q116.58-8.23 116.58-6.68L116.58-6.68L116.58-6.68Q117.35-5.48 124.24-4.64L124.24-4.64L124.31-4.50L124.31-4.50Q124.66-3.66 125.23-3.66L125.23-3.66L125.37-3.45L125.37-3.45Q125.02-2.95 124.03-0.14L124.03-0.14L124.03-0.14Q123.75 0.14 123.26 0.14L123.26 0.14L123.26 0.14Q123.26-0.28 115.88-0.28L115.88-0.28L115.17-0.28L115.17-0.28Q113.55-0.28 112.64 0.14L112.64 0.14L112.64 0.14Q111.80-0.21 110.88-0.21L110.88-0.21L107.72-0.21L107.72-0.21Q107.37-0.21 106.17 0.14L106.17 0.14L105.96-0.35L105.96-0.63L105.96-0.63Q105.96-1.90 107.02-3.80L107.02-3.80L107.02-3.80Q107.02-4.15 109.83-4.36L109.83-4.36L109.83-4.36Q109.83-4.50 110.18-4.50L110.18-4.50L110.18-4.71L110.18-4.71Q110.18-4.78 107.51-5.20L107.51-5.20L107.51-5.34L107.51-5.34Q107.51-5.63 110.60-5.77L110.60-5.77L110.60-5.77Q111.87-5.77 112.29-11.67L112.29-11.67L112.29-11.67Q112.29-13.78 113.06-18.56L113.06-18.56L113.06-18.56Q113.48-19.62 113.70-39.59L113.70-39.59L113.63-40.64L113.70-41.34L113.70-41.34Q113.06-42.26 108.42-42.26L108.42-42.26L108.42-42.26Q106.17-42.89 106.17-43.31L106.17-43.31L106.17-43.31Q107.23-43.45 107.23-43.95L107.23-43.95L106.88-44.72L106.88-44.72Q107.37-47.32 108.84-47.32L108.84-47.32L108.84-47.32Q110.39-47.46 113.06-47.46ZM107.79-46.48L107.79-46.48L107.72-46.34L107.72-46.05L107.72-46.05Q107.86-45.70 108.35-45.70L108.35-45.70L111.73-45.70L111.94-45.91L111.94-45.91Q111.38-46.13 107.79-46.48ZM119.60-45.21L119.60-45.21L119.67-45.21L119.67-45.21Q120.23-45.77 120.23-46.05L120.23-46.05L120.16-46.20L120.09-46.20L120.09-46.20Q119.81-46.20 119.60-45.21ZM115.17-45.70L115.03-45.84L113.91-45.84L113.91-45.63L114.89-45.56L115.17-45.70ZM110.67-44.30L109.34-44.30L108.28-44.16L108.28-43.95L108.28-43.95Q108.91-43.66 113.34-43.66L113.34-43.66L114.33-43.66L114.89-43.80L114.89-43.95L114.89-43.95Q113.63-44.30 110.67-44.30L110.67-44.30ZM134.16-43.24L134.16-43.24L134.23-43.24L134.23-43.24Q134.58-43.24 134.93-44.02L134.93-44.02L134.86-44.02L134.86-44.02Q134.37-44.02 134.16-43.24ZM142.03-43.80L141.96-43.80L141.75-43.45L141.75-43.38L142.24-43.38L142.24-43.59L142.03-43.80ZM116.37-41.41L116.37-41.41L116.23-41.13L116.23-41.13Q116.44-40.50 116.58-40.50L116.58-40.50L116.93-40.50L116.93-40.92L116.93-40.99L116.93-40.99Q116.79-41.41 116.37-41.41ZM132.19-40.64L131.84-40.64L131.48-40.29L131.48-40.22L131.63-40.22L132.19-40.36L132.19-40.64ZM127.20-36.98L127.20-36.84L127.20-36.77L127.20-36.49L127.41-36.49L131.06-39.52L131.20-39.59L131.20-39.87L130.99-39.87L130.99-39.87Q129.30-39.52 127.20-36.98L127.20-36.98ZM131.84-37.83L131.84-37.83L131.84-37.62L132.05-37.62L132.05-37.62Q132.82-38.04 132.96-38.46L132.96-38.46L132.96-38.60L132.89-38.60L132.89-38.60Q132.40-38.60 131.84-37.83ZM122.13-32.34L122.13-32.34L122.13-32.13L122.20-32.13L122.20-32.13Q122.77-32.13 123.47-33.05L123.47-33.05L123.26-33.26L123.26-33.26Q122.77-33.26 122.13-32.34ZM124.24-28.62L124.24-28.62L124.03-28.62L124.03-28.20L124.03-28.20Q124.10-26.86 124.73-26.86L124.73-26.86L124.73-26.93L124.80-27.28L124.80-27.28Q124.80-27.91 124.24-28.62ZM119.18-25.95L119.18-25.95L119.18-25.59L119.39-25.59L119.39-25.59Q120.45-26.30 121.15-27.42L121.15-27.42L121.15-27.63L121.01-27.63L121.01-27.63Q120.38-27.63 119.18-25.95ZM113.77-6.26L113.48-6.61L113.34-6.61L113.34-6.40L113.70-6.12L113.77-6.12L113.77-6.26ZM117.84-6.47L117.63-6.47L117.63-6.61L117.84-6.61L117.84-6.47ZM116.23-4.36L116.23-4.43L116.09-4.43L116.09-4.36L116.23-4.36ZM123.33-3.73L122.77-3.73L122.55-3.52L122.55-3.52Q123.26-3.45 123.26-3.16L123.26-3.16L123.26-3.16Q122.91-2.74 121.92-2.74L121.92-2.74L121.22-2.74L121.22-2.74Q121.01-2.74 121.01-2.46L121.01-2.46L121.22-2.04L121.15-2.04L121.15-2.04Q121.15-2.25 111.59-3.16L111.59-3.16L110.11-3.16L110.11-3.09L110.11-3.09Q110.74-2.39 119.04-1.76L119.04-1.76L121.01-1.76L121.01-1.76Q123.19-1.76 123.61-2.81L123.61-2.81L123.61-2.81Q123.61-3.02 124.03-3.45L124.03-3.45L124.03-3.45Q124.03-3.73 123.33-3.73L123.33-3.73ZM106.80-2.39L106.80-2.39L106.80-2.18L106.95-2.18L106.95-2.18Q107.44-2.18 107.65-2.60L107.65-2.60L107.65-3.02L107.37-3.02L107.37-3.02Q106.88-2.81 106.80-2.39ZM144.49-2.32L144.28-2.32L143.79-2.18L143.79-1.97L144.28-1.90L144.49-1.90L144.70-2.04L144.70-2.18L144.49-2.32ZM158.27-23.13L169.73-24.89L170.09-24.89L170.09-24.89Q170.51-24.89 170.93-19.34L170.93-19.34L171-19.34L171-19.34Q171-18.56 163.83-18.07L163.83-18.07L163.83-18.07Q155.53-16.45 153.49-16.45L153.49-16.45L153.49-16.59L153.49-16.59Q153.49-17.16 159.33-17.93L159.33-17.93L159.33-17.93Q161.93-18.56 161.93-18.84L161.93-18.84L161.93-18.91L161.23-18.91L161.23-18.91Q152.93-18.42 152.93-16.59L152.93-16.59L152.37-16.31L152.37-16.31Q149.98-16.31 149.98-21.30L149.98-21.30L149.98-21.30Q149.98-22.64 155.46-23.20L155.46-23.20L155.46-23.20Q155.46-23.41 156.16-23.41L156.16-23.41L157.57-23.13L158.27-23.13ZM168.89-23.70L168.33-23.70L167.91-23.63L167.91-23.41L168.54-23.41L168.89-23.55L168.89-23.70ZM164.81-22.85L164.81-22.85L165.66-22.85L165.66-22.85Q166.36-22.85 166.43-23.13L166.43-23.13L166.43-23.20L166.29-23.20L166.29-23.20Q164.81-23.06 164.81-22.85ZM161.09-22.15L161.09-22.15L161.09-22.01L161.09-22.01Q161.86-22.01 161.93-22.43L161.93-22.43L161.58-22.43L161.58-22.43Q161.09-22.43 161.09-22.15ZM165.59-21.38L165.59-21.38L167.13-21.38L167.13-21.38Q169.38-21.52 169.59-22.01L169.59-22.01L169.59-22.15L169.24-22.29L169.24-22.29Q165.59-21.80 165.59-21.38ZM157.71-21.59L157.71-21.59L157.71-21.30L157.78-21.30L157.78-21.30Q159.26-21.30 160.03-21.87L160.03-21.87L160.03-22.01L159.89-22.01L159.89-22.01Q159.05-22.01 157.71-21.59ZM151.59-21.59L151.45-21.59L151.17-21.30L151.17-20.39L151.31-20.25L151.45-20.25L151.45-20.25Q151.66-20.25 151.73-21.16L151.73-21.16L151.73-21.38L151.59-21.59ZM153.77-21.59L153.49-21.59L153.28-21.30L153.28-21.16L153.63-21.16L153.77-21.38L153.77-21.59ZM164.39-21.16L164.25-21.30L164.11-21.30L164.11-21.16L164.39-21.16ZM163.34-19.20L163.34-19.20L163.34-19.13L163.48-19.13L163.48-19.13Q169.73-19.34 169.73-19.69L169.73-19.69L169.73-19.83L169.73-19.83Q169.59-20.04 169.31-20.25L169.31-20.25L169.24-20.25L169.24-20.25Q166.78-20.25 163.34-19.20ZM151.52-19.62L151.31-19.62L151.17-19.41L151.17-19.27L151.31-19.27L151.52-19.41L151.52-19.62ZM182.39-38.11L182.39-38.11L191.11-38.32L191.11-38.32Q192.23-38.32 195.82-37.34L195.82-37.34L195.82-37.34Q199.90-33.47 200.67-31.29L200.67-31.29L200.67-31.29Q202.22-29.67 203.13-24.89L203.13-24.89L203.13-24.89Q204.26-23.77 204.26-19.90L204.26-19.90L204.33-18.14L204.05-11.18L204.05-11.18Q204.05-9.07 206.65-5.98L206.65-5.98L206.65-5.98Q209.04-3.66 209.74-3.66L209.74-3.66L209.74-3.52L209.74-3.52Q209.74-2.67 207.28-0.84L207.28-0.84L207.28-0.84Q205.45 0.98 204.96 0.98L204.96 0.98L204.89 0.98L204.89 0.98Q203.77 0.84 199.20-3.16L199.20-3.16L199.20-3.16Q190.90 0.07 190.83 0.14L190.83 0.14L190.83 0.14Q188.09 0.98 184.71 0.98L184.71 0.98L184.36 0.98L184.36 0.98Q180.56 0.35 177.89-1.97L177.89-1.97L177.89-1.97Q177.40-2.39 175.85-5.48L175.85-5.48L175.85-5.48Q174.59-7.03 174.59-9.28L174.59-9.28L174.59-11.32L174.59-11.32Q174.59-13.29 175.64-14.98L175.64-14.98L175.64-14.98Q176.55-17.86 178.80-20.46L178.80-20.46L178.80-20.46Q179.93-21.80 181.05-22.15L181.05-22.15L181.05-22.15Q184.71-24.12 188.30-24.12L188.30-24.12L191.46-24.19L191.88-24.19L191.88-24.19Q194.55-24.19 195.68-23.41L195.68-23.41L196.10-23.41L196.10-23.41Q196.45-23.41 196.45-23.70L196.45-23.70L196.45-23.70Q195.68-27 193.92-30.02L193.92-30.02L193.92-30.02Q192.38-32.63 188.16-32.63L188.16-32.63L185.27-33.05L185.27-33.05Q181.55-32.27 181.55-31.50L181.55-31.50L181.55-31.50Q180.07-29.60 179.79-26.79L179.79-26.79L179.79-26.79Q179.65-26.44 177.26-26.44L177.26-26.44L176.84-26.30L176.84-26.30Q176.55-26.30 176.13-25.10L176.13-25.10L176.13-25.10Q174.16-25.38 174.16-25.95L174.16-25.95L174.16-25.95Q174.30-26.37 174.66-31.01L174.66-31.01L174.66-31.01Q175.78-34.24 180-36.98L180-36.98L180-36.98Q181.97-38.11 182.39-38.11ZM190.62-36.91L190.27-36.91L190.13-36.70L190.34-36.42L190.76-36.42L190.83-36.56L190.62-36.91ZM195.61-36.35L195.61-36.35L195.47-36.35L195.47-36.21L195.47-36.21Q196.03-35.65 196.45-35.65L196.45-35.65L196.52-35.65L196.52-35.79L196.52-35.79Q195.96-36.35 195.61-36.35ZM184.36-36L184.36-36L184.36-35.79L184.36-35.79Q184.43-35.58 185.06-35.58L185.06-35.58L185.06-35.58Q185.70-35.58 186.82-36L186.82-36L186.82-36.28L186.54-36.28L186.54-36.28Q184.99-36.28 184.36-36ZM178.03-33.75L178.03-33.75L178.03-33.61L178.10-33.61L178.10-33.61Q178.73-33.61 180-34.95L180-34.95L180-35.16L179.93-35.16L179.93-35.16Q179.23-35.16 178.03-33.75ZM188.37-34.24L187.80-34.24L187.45-33.96L187.66-33.61L188.58-33.61L188.79-33.82L188.37-34.24ZM177.61-28.41L177.47-28.55L177.26-28.41L177.26-27.35L177.33-27.35L177.33-27.35Q177.61-27.42 177.61-27.84L177.61-27.84L177.61-28.41ZM202.99-22.92L202.99-22.92L202.92-22.92L202.92-22.78L202.92-22.78Q203.06-22.22 203.20-22.22L203.20-22.22L203.27-22.57L203.27-22.57Q203.13-22.92 202.99-22.92ZM201.45-20.46L201.38-20.46L201.16-20.32L201.16-20.11L201.16-20.11Q201.45-19.05 201.73-19.05L201.73-19.05L201.87-19.05L201.87-19.05Q201.87-19.97 201.45-20.46L201.45-20.46ZM180.84-20.04L180.77-20.04L180-19.69L180-19.34L180.14-19.34L180.14-19.34Q180.63-19.34 180.84-19.90L180.84-19.90L180.84-20.04ZM180-13.36L180-13.36L180-13.36Q180.49-9.14 181.20-9.14L181.20-9.14L181.90-8.23L181.90-8.16L181.27-8.23L181.27-8.02L181.27-8.02Q182.60-6.19 186.75-4.64L186.75-4.64L186.75-4.64Q187.24-4.36 188.16-4.22L188.16-4.22L188.16-4.22Q189.42-4.22 197.86-8.37L197.86-8.37L197.86-8.37Q198.42-8.72 198.42-9.14L198.42-9.14L198.42-9.49L198.42-9.49Q197.79-12.38 197.37-16.24L197.37-16.24L197.23-16.31L197.23-16.31Q197.23-17.09 195.68-17.58L195.68-17.58L195.68-17.58Q190.48-19.05 188.58-19.05L188.58-19.05L188.58-19.05Q183.23-17.86 181.27-15.47L181.27-15.47L181.27-15.47Q180-14.20 180-13.36ZM201.16-17.86L201.16-17.93L200.95-18.07L200.95-17.86L201.16-17.86ZM201.45-16.31L201.45-16.59L201.02-16.59L201.02-16.31L201.23-16.10L201.45-16.31ZM199.27-14.84L199.20-14.84L198.98-14.63L199.20-14.34L199.48-14.41L199.48-14.63L199.27-14.84ZM201.73-14.63L201.73-14.63L201.52-14.63L201.52-14.55L201.52-14.55Q201.66-11.88 202.08-11.88L202.08-11.88L202.22-12.02L202.22-12.16L202.22-12.16Q202.22-13.64 201.73-14.63ZM199.27-12.38L198.98-12.38L198.91-12.30L198.91-11.88L199.13-11.60L199.20-11.60L199.48-11.88L199.48-12.30L199.27-12.38ZM204.96-5.77L204.96-5.77L204.75-5.77L204.75-5.34L204.75-5.34Q205.03-4.43 205.38-4.43L205.38-4.43L205.59-4.43L205.59-4.64L205.59-4.64Q205.31-5.77 204.96-5.77ZM179.23-5.55L179.09-5.55L178.95-5.41L178.95-5.34L179.09-5.20L179.44-5.20L179.44-5.34L179.23-5.55ZM203.13-4.64L202.78-4.64L202.57-4.43L202.57-4.43Q202.78-3.94 203.13-3.80L203.13-3.80L203.20-3.80L203.48-4.08L203.48-4.22L203.13-4.64ZM192.59-3.66L192.59-3.66L192.59-3.52L192.87-3.52L192.87-3.52Q193.85-3.52 195.47-4.36L195.47-4.36L195.47-4.43L195.19-4.43L195.19-4.43Q192.80-4.15 192.59-3.66ZM204.61-3.45L204.33-3.45L204.19-3.16L204.19-3.02L204.47-2.74L204.75-2.74L204.96-2.88L204.96-3.02L204.61-3.45ZM187.88-2.88L186.96-2.88L186.75-2.67L186.75-2.67Q186.89-2.32 187.31-2.32L187.31-2.32L187.31-2.32Q188.09-2.46 188.09-2.67L188.09-2.67L188.09-2.74L187.88-2.88ZM179.51-1.90L179.30-1.90L179.09-1.62L179.09-1.62Q179.37-0.98 182.60 0L182.60 0L182.60 0Q183.66 0.49 185.41 0.49L185.41 0.49L185.41 0.42L185.41 0.42Q185.41 0.21 182.74-0.35L182.74-0.35L182.74-0.35Q181.20-0.77 179.51-1.90L179.51-1.90ZM225.91-36.77L225.91-36.77L228.23-36.77L228.23-36.77Q229.92-36.77 233.72-35.30L233.72-35.30L233.72-35.30Q235.13-35.30 238.15-33.54L238.15-33.54L238.50-33.54L238.50-33.54Q239.27-33.54 241.88-36.35L241.88-36.35L241.88-36.35Q242.44-36.35 243.98-34.38L243.98-34.38L243.98-34.38Q244.69-34.10 245.60-33.05L245.60-33.05L245.60-32.84L245.60-32.84Q241.66-28.48 241.66-27.98L241.66-27.98L241.66-27.98Q239.77-21.59 239.13-20.88L239.13-20.88L239.13-20.88Q237.80-19.48 235.34-18.42L235.34-18.42L235.34-18.42Q232.24-15.33 229.78-15.33L229.78-15.33L227.67-15.26L223.10-15.68L222.19-15.68L222.19-15.68Q221.63-15.68 220.71-11.04L220.71-11.04L221.27-10.90L221.48-10.90L221.48-10.90Q222.61-10.90 223.95-11.74L223.95-11.74L225.56-11.88L228.38-11.88L228.38-11.88Q235.13-11.88 239.48-10.62L239.48-10.62L239.48-10.62Q240.12-10.20 242.58-9.07L242.58-9.07L244.97-7.31L244.97-7.31Q247.78-4.92 248.48-3.02L248.48-3.02L248.48-3.02Q251.02 1.90 251.02 5.34L251.02 5.34L251.02 5.34Q251.02 7.95 246.94 11.81L246.94 11.81L242.65 14.91L242.65 14.91Q239.27 17.02 234.63 17.02L234.63 17.02L232.66 17.30L232.66 17.30Q220.15 17.30 215.72 12.23L215.72 12.23L215.72 12.23Q212.48 10.27 212.48 7.10L212.48 7.10L212.48 7.10Q211.29 4.85 211.29 1.20L211.29 1.20L211.01-0.35L211.29-1.27L211.50-1.27L211.50-1.27Q211.85 0.35 212.06 0.35L212.06 0.35L212.27 0.35L212.27 0.35Q213.26-4.08 213.82-5.55L213.82-5.55L213.82-5.70L213.75-5.70L213.75-5.70Q211.71-2.39 211.71-1.90L211.71-1.90L211.57-1.90L211.57-1.90Q211.29-1.90 211.29-2.67L211.29-2.67L211.29-2.67Q211.36-4.08 213.82-7.52L213.82-7.52L213.82-7.52Q216.56-10.13 216.56-10.48L216.56-10.48L216.56-10.48Q217.27-16.31 217.62-17.72L217.62-17.72L217.62-17.72Q215.79-21.23 215.79-23.48L215.79-23.48L215.72-24.68L215.72-24.68Q215.72-25.88 216.63-29.04L216.63-29.04L216.63-29.04Q217.41-29.81 219.59-32.84L219.59-32.84L219.59-32.84Q223.31-36.77 225.91-36.77ZM223.31-35.02L223.31-35.02L223.31-34.95L223.31-34.95Q225.77-35.58 225.77-36L225.77-36L225.77-36.07L225.56-36.07L225.56-36.07Q224.58-36.07 223.31-35.02ZM242.30-34.73L242.09-34.73L241.88-34.52L241.88-34.45L241.88-34.45Q242.02-34.24 242.37-34.24L242.37-34.24L242.79-34.24L242.79-34.38L242.30-34.73ZM225.07-33.54L225.07-33.54L225.07-33.26L225.21-33.26L227.32-34.03L227.32-34.38L226.69-34.38L226.69-34.38Q225.07-34.03 225.07-33.54ZM220.85-26.30L220.85-26.30L220.85-25.95L220.85-25.95Q221.98-20.60 222.47-20.60L222.47-20.60L222.47-20.60Q224.09-19.05 225.28-19.05L225.28-19.05L225.28-19.05Q230.63-19.05 232.95-21.45L232.95-21.45L232.95-21.45Q234.70-23.06 235.48-24.82L235.48-24.82L235.48-24.82Q236.04-25.80 236.04-26.30L236.04-26.30L236.04-27.42L236.04-27.42Q236.04-28.55 234.35-30.80L234.35-30.80L234.35-30.80Q230.55-32.48 229.08-32.48L229.08-32.48L229.08-32.48Q225.77-32.48 222.68-29.60L222.68-29.60L222.68-29.60Q220.85-27.35 220.85-26.30ZM241.52-30.52L241.52-30.52L241.52-30.09L241.66-30.09L241.66-30.09Q243.14-31.36 243.70-32.27L243.70-32.27L243.70-32.48L243.63-32.48L243.63-32.48Q242.86-32.48 241.52-30.52ZM221.63-30.66L221.63-30.66L221.91-30.59L221.91-30.59Q222.33-30.59 223.03-31.50L223.03-31.50L223.03-31.78L222.61-31.78L222.61-31.78Q221.63-31.22 221.63-30.66ZM237.09-31.29L237.09-31.29L236.74-31.29L236.74-31.22L236.74-31.22Q237.23-29.88 237.94-29.88L237.94-29.88L237.94-29.88Q238.15-29.88 238.15-30.09L238.15-30.09L238.15-30.09Q238.15-30.59 237.09-31.29ZM217.34-27.49L217.34-27.49L217.55-27.49L217.55-27.49Q217.76-27.63 218.67-28.90L218.67-28.90L218.46-29.04L218.46-29.04Q218.04-29.04 217.34-27.49ZM216.42-25.38L216.42-25.38L216.42-25.38Q216.42-23.84 217.13-23.06L217.13-23.06L217.41-23.06L217.41-23.06Q217.62-23.06 217.62-23.27L217.62-23.27L217.62-23.27Q217.34-26.23 216.91-26.23L216.91-26.23L216.91-26.23Q216.56-26.23 216.42-25.38ZM234.84-21.52L234.84-21.52L234.84-21.45L235.27-21.45L235.27-21.45Q236.53-21.45 236.88-24.33L236.88-24.33L236.88-24.68L236.81-24.82L236.60-24.82L236.60-24.82Q234.84-22.01 234.84-21.52ZM220.01-24.54L220.01-24.54L219.87-24.33L219.87-24.33Q219.87-23.13 220.64-22.15L220.64-22.15L220.71-22.15L220.71-22.43L220.71-22.43Q220.57-24.26 220.01-24.54ZM238.50-21.80L238.50-21.80L238.29-21.80L238.08-21.45L238.08-21.38L238.29-21.38L238.29-21.38Q238.36-21.38 238.50-21.80ZM233.44-19.90L233.44-19.90L233.65-19.90L233.65-19.90Q234.49-20.25 234.98-20.88L234.98-20.88L234.77-21.16L234.77-21.16Q233.58-20.32 233.44-19.90ZM230.48-19.05L230.48-19.05L230.48-18.84L230.91-18.56L231.19-18.56L231.19-18.56Q231.54-18.56 232.59-19.62L232.59-19.62L232.59-19.76L231.96-19.76L231.96-19.76Q231.12-19.76 230.48-19.05ZM217.69-19.34L217.69-19.34L217.41-19.34L217.41-19.13L217.41-19.13Q218.11-18 219.52-17.58L219.52-17.58L219.52-17.72L219.52-17.72Q218.88-19.34 217.69-19.34ZM233.65-19.34L233.23-19.34L232.95-19.05L232.95-18.77L233.09-18.77L233.65-19.27L233.65-19.34ZM220.57-18.84L220.57-18.84L220.36-18.63L220.36-18.63Q220.64-17.93 221.27-17.93L221.27-17.93L221.63-18.35L221.63-18.35Q221.63-18.63 220.57-18.84ZM229.57-18.56L229.01-18.56L228.73-18.28L228.73-18.28Q228.73-18.14 229.92-18L229.92-18L230.48-18.07L230.48-18.07Q230.48-18.35 229.57-18.56L229.57-18.56ZM222.12-18L222.12-18L222.05-17.93L222.05-17.37L222.33-17.09L223.52-17.09L223.52-17.37L223.52-17.37Q222.33-18 222.12-18ZM225.21-17.23L224.51-17.23L224.23-17.02L224.23-17.02Q224.23-16.38 226.55-16.38L226.55-16.38L228.59-16.38L228.59-16.38Q229.01-16.38 229.08-16.66L229.08-16.66L229.08-16.66Q227.60-17.23 225.21-17.23L225.21-17.23ZM219.59-16.38L219.38-16.38L219.02-16.10L219.02-15.54L219.02-15.54Q219.02-14.98 219.59-14.84L219.59-14.84L219.87-15.05L219.87-16.17L219.59-16.38ZM230.98-10.76L230.27-10.76L228.73-10.48L228.73-10.41L228.73-10.41Q228.73-9.77 235.97-9.56L235.97-9.56L237.45-9.07L237.59-9.07L237.59-9.07Q237.80-9.07 238.15-9.28L238.15-9.28L240.19-9.21L240.19-9.42L240.19-9.42Q239.84-9.98 238.57-9.98L238.57-9.98L237.87-9.98L237.87-9.98Q237.52-9.98 237.23-9.77L237.23-9.77L235.55-10.48L235.55-10.48Q234.07-10.76 230.98-10.76L230.98-10.76ZM224.65-10.48L224.93-10.48L224.65-10.48ZM221.06-8.51L221.06-8.51L221.06-8.51Q221.06-8.37 223.31-8.23L223.31-8.23L223.31-8.23Q224.23-8.30 224.23-8.51L224.23-8.51L224.23-8.51Q223.88-9.07 223.38-9.28L223.38-9.28L222.61-9.28L222.61-9.28Q221.06-9.07 221.06-8.51ZM234.77-8.02L233.09-8.23L233.02-8.23L233.02-8.16L233.02-8.16Q233.02-7.88 234.70-7.80L234.70-7.80L234.77-7.88L234.77-8.02ZM240.12-8.23L239.84-8.23L239.63-7.95L239.84-7.80L240.12-7.88L240.12-8.23ZM217.97-7.31L217.97-7.31L218.32-7.10L218.81-7.10L219.09-7.45L219.09-7.88L218.88-8.16L218.88-8.16Q218.18-8.16 217.97-7.31ZM215.09-5.98L215.09-5.98L215.09-5.91L215.30-5.70L215.30-5.70Q216.98-6.12 216.98-6.82L216.98-6.82L216.98-7.31L216.84-7.52L216.84-7.52Q215.93-7.17 215.09-5.98ZM240.89-7.24L240.82-7.24L240.75-7.24L240.75-7.24Q240.75-6.75 242.37-6.40L242.37-6.40L242.65-6.47L242.65-6.61L242.65-6.61Q242.16-7.24 241.10-7.24L241.10-7.24L240.89-7.24ZM223.17-7.10L223.03-7.10L222.68-6.82L222.89-6.61L223.38-6.61L223.38-6.96L223.17-7.10ZM232.95-6.96L232.95-6.96L232.59-6.61L232.59-6.61Q232.59-6.33 236.11-6.12L236.11-6.12L236.11-6.12Q238.99-5.27 241.10-3.80L241.10-3.80L242.09-3.73L242.37-4.01L242.37-4.08L242.37-4.08Q241.88-5.06 237.87-6.26L237.87-6.26L237.87-6.26Q234.14-6.96 232.95-6.96ZM228.38-5.98L228.38-5.98L228.38-5.77L227.25-5.55L225.77-5.77L220.57-5.70L220.57-5.70Q217.34-2.74 217.34-1.55L217.34-1.55L216.91-1.05L216.91-0.91L216.91-0.91Q217.41 6.12 218.32 7.80L218.32 7.80L218.32 7.80Q218.39 8.16 220.85 9.91L220.85 9.91L220.85 9.91Q220.85 10.41 225.07 11.60L225.07 11.60L225.07 11.60Q231.26 12.52 235.34 12.52L235.34 12.52L235.34 12.52Q240.61 11.53 242.51 9.56L242.51 9.56L242.51 9.56Q245.95 6.05 245.95 3.80L245.95 3.80L245.95 3.45L245.95 3.45Q245.95 2.25 243.21-1.27L243.21-1.27L243.21-1.27Q242.86-2.25 241.10-3.16L241.10-3.16L241.10-3.16Q238.01-5.20 234.84-5.70L234.84-5.70L230.48-5.77L230.48-6.19L230.48-6.26L229.64-6.26L229.64-6.26Q228.66-6.26 228.38-5.98ZM243.49-5.91L243.49-5.91L243-5.91L243-5.77L245.74-3.30L245.88-3.30L245.88-3.45L245.88-3.45Q244.90-5.41 243.49-5.91ZM217.34-4.43L217.34-4.43L217.34-4.22L217.55-4.22L218.39-4.50L218.39-4.78L218.25-4.78L218.25-4.78Q217.34-4.71 217.34-4.43ZM216.35-3.73L216.35-3.73L216.35-3.45L216.56-3.45L216.98-3.94L216.98-4.15L216.98-4.15Q216.56-4.15 216.35-3.73ZM214.45-1.97L214.45-1.97L214.52-1.62L214.66-1.62L214.66-1.62Q215.02-1.62 215.51-3.73L215.51-3.73L215.37-3.73L215.37-3.73Q214.45-3.02 214.45-1.97ZM242.93-3.45L242.93-3.45L242.65-3.45L242.65-3.45Q242.65-3.09 244.69-0.63L244.69-0.63L244.69-0.56L244.83-0.56L244.83-0.84L244.83-0.84Q243.91-3.45 242.93-3.45ZM249.26 2.04L249.26 1.76L248.98 1.76L248.98 1.90L249.19 2.18L249.26 2.04ZM247.92 2.39L247.64 2.25L247.29 2.25L247.29 2.39L247.50 2.67L247.64 2.67L247.92 2.39ZM212.27 2.88L212.06 2.88L211.92 2.95L211.92 3.45L212.20 3.66L212.27 3.66L212.27 2.88ZM248.77 4.22L248.77 4.22L248.77 4.36L248.77 4.36Q248.77 4.99 249.05 5.06L249.05 5.06L249.19 5.06L249.19 5.06Q249.75 4.08 249.75 2.95L249.75 2.95L249.68 2.88L249.47 2.88L249.47 2.88Q248.77 3.38 248.77 4.22ZM216.21 3.09L216.07 3.09L215.93 3.30L215.79 4.71L215.79 4.71Q215.86 6.19 216.21 6.19L216.21 6.19L216.35 6.19L216.35 6.19Q216.56 6.05 216.56 5.70L216.56 5.70L216.56 4.78L216.56 4.78Q216.56 3.09 216.21 3.09L216.21 3.09ZM212.77 4.50L212.41 4.15L212.27 4.15L212.27 4.36L212.27 4.36Q212.34 4.85 212.55 4.85L212.55 4.85L212.77 4.71L212.77 4.50ZM244.34 9L244.34 9L244.34 9.14L244.55 9.28L244.55 9.28Q246.30 8.79 246.30 7.45L246.30 7.45L246.30 6.96L246.09 6.96L246.09 6.96Q244.34 8.30 244.34 9ZM215.37 8.65L215.37 8.65L215.09 9L215.09 9Q215.30 9.49 215.51 9.49L215.51 9.49L215.79 9.14L215.79 9.14Q215.79 8.86 215.37 8.65ZM218.25 9.98L218.25 9.98L218.11 9.98L218.11 10.20L218.39 10.48L218.81 10.48L218.81 10.27L218.81 10.27Q218.74 9.98 218.25 9.98ZM217.69 10.48L217.27 10.48L217.05 10.76L217.05 10.90L217.69 10.90L217.69 10.48ZM235.05 13.78L235.05 13.78L235.05 13.78Q226.41 13.22 225.28 12.80L225.28 12.80L223.38 12.66L223.38 12.80L223.38 12.80Q224.30 13.50 225.77 13.71L225.77 13.71L227.88 13.64L228.38 13.99L228.45 13.92L228.59 13.92L228.59 13.92Q230.48 14.27 232.59 14.27L232.59 14.27L234.14 14.27L234.14 14.27Q237.23 14.27 238.43 13.50L238.43 13.50L238.43 13.50Q241.38 12.45 241.38 12.30L241.38 12.30L241.38 12.23L241.38 12.23Q237.02 13.15 235.05 13.78ZM238.29 16.10L238.29 16.10L238.50 16.10L238.50 16.10Q239.06 16.10 241.95 14.41L241.95 14.41L241.95 14.27L241.66 14.27L241.66 14.27Q238.29 15.05 238.29 16.10ZM236.32 15.82L236.32 15.82L236.32 15.96L236.60 15.96L236.60 15.96Q237.87 15.75 237.87 15.12L237.87 15.12L237.59 15.12L237.59 15.12Q236.60 15.47 236.32 15.82ZM225.77 15.54L225.91 15.54L225.56 15.26L225.49 15.33L225.49 15.40L225.77 15.54ZM226.97 15.75L226.97 15.75L226.69 15.75L226.69 15.82L226.69 15.82Q226.76 16.10 227.46 16.10L227.46 16.10L228.23 16.10L228.23 16.10Q228.23 15.75 226.97 15.75ZM233.09 15.75L232.66 15.75L232.52 15.96L232.52 16.10L232.52 16.10Q232.59 16.38 233.02 16.38L233.02 16.38L233.44 16.38L234.35 16.17L234.35 15.96L233.09 15.75ZM269.30-35.30L269.30-35.30L269.30-35.30Q272.25-35.30 276.47-32.77L276.47-32.77L276.47-32.77Q280.05-30.09 280.05-29.11L280.05-29.11L280.05-29.11Q282.87-23.20 282.87-22.01L282.87-22.01L282.94-21.45L282.94-21.45Q281.88-18.98 281.88-18.07L281.88-18.07L281.46-18L275.48-18L275.48-18Q274.64-18 273.45-17.79L273.45-17.79L273.45-17.79Q263.32-18.63 259.24-18.63L259.24-18.63L257.77-18.63L257.77-18.63Q256.92-17.37 256.92-16.80L256.92-16.80L256.92-16.80Q257.41-16.03 257.41-14.34L257.41-14.34L257.41-14.34Q257.41-11.67 258.26-11.18L258.26-11.18L258.33-10.83L258.33-10.76L257.91-10.97L257.91-10.76L258.54-10.05L258.54-10.05Q258.54-9.14 259.80-7.73L259.80-7.73L259.80-7.73Q262.13-3.66 264.87-2.67L264.87-2.67L264.87-2.67Q267.19-1.90 270.14-1.90L270.14-1.90L270.14-1.90Q270.63-1.90 272.18-2.81L272.18-2.81L272.18-2.81Q273.45-3.09 277.52-7.38L277.52-7.38L277.52-7.59L277.52-7.59Q277.52-7.73 276.54-7.88L276.54-7.88L276.40-8.23L276.40-8.23Q278.02-11.32 280.27-12.30L280.27-12.30L280.27-12.30Q280.90-11.67 282.87-10.34L282.87-10.34L282.87-10.34Q284.41-7.95 287.02-4.71L287.02-4.71L287.02-4.43L287.02-4.43Q284.77-1.48 283.78-1.48L283.78-1.48L283.50-1.48L283.50-1.48Q283.50-3.02 281.60-3.23L281.60-3.23L281.60-3.23Q281.25-3.23 278.51-0.91L278.51-0.91L278.51-0.91Q276.89 0.35 272.95 1.48L272.95 1.48L272.95 1.48Q268.38 2.39 266.48 2.39L266.48 2.39L262.48 0.98L262.48 0.98Q259.10 0.98 256.29-2.67L256.29-2.67L256.29-2.67Q255.09-3.94 254.32-5.70L254.32-5.70L254.32-5.70Q254.32-6.26 252.77-11.53L252.77-11.53L252.77-11.53Q252.28-13.57 252.28-15.47L252.28-15.47L252.28-15.54L252.28-15.54Q252.28-24.89 257.91-31.92L257.91-31.92L257.91-31.92Q258.61-33.68 261.14-34.52L261.14-34.52L261.14-34.52Q262.83-35.02 265.22-35.30L265.22-35.30L265.22-35.30Q265.85-35.58 269.30-35.30ZM262.97-33.96L262.83-33.82L262.83-33.75L262.97-33.75L262.97-33.75Q264.09-33.75 267.19-34.52L267.19-34.52L267.19-34.52Q267.82-34.59 267.82-34.88L267.82-34.88L267.61-35.09L267.54-35.09L267.54-35.09Q265.50-35.09 262.97-33.96L262.97-33.96ZM260.02-32.63L260.02-32.63L260.02-32.55L260.23-32.41L260.30-32.41L260.30-32.41Q261.70-32.77 261.70-33.12L261.70-33.12L261.70-33.54L261.42-33.82L261.28-33.82L261.28-33.82Q260.02-33.40 260.02-32.63ZM270.84-33.33L270.84-33.33L268.73-33.33L268.73-33.19L268.73-33.19Q268.73-32.91 271.62-32.77L271.62-32.77L271.69-32.77L271.69-33.05L271.69-33.05Q271.69-33.19 270.84-33.33ZM265.85-32.27L265.85-32.27L265.85-32.20L265.85-32.20Q265.85-31.92 268.73-31.50L268.73-31.50L268.88-31.57L268.88-31.85L268.88-31.85Q268.31-32.63 266.98-32.63L266.98-32.63L266.77-32.63L266.77-32.63Q265.85-32.55 265.85-32.27ZM270.14-31.85L270.14-31.85L270.14-31.78L270.14-31.78Q274.15-29.46 274.43-29.46L274.43-29.46L274.50-29.46L275.20-29.74L275.63-29.60L275.70-29.74L275.70-29.81L275.70-29.81Q275.41-30.02 274.50-30.23L274.50-30.23L273.09-30.87L273.09-30.87Q272.53-32.06 270.84-32.06L270.84-32.06L270.63-32.06L270.63-32.06Q270.14-31.99 270.14-31.85ZM261.77-29.81L261.77-29.81L261.77-29.81Q262.48-30.38 264.59-31.01L264.59-31.01L264.59-31.15L264.52-31.29L263.81-31.29L263.81-31.29Q261.77-30.73 261.77-29.81ZM258.05-25.17L258.05-25.17L258.05-24.96L258.05-24.96Q258.05-24.19 270.84-23.20L270.84-23.20L271.55-22.99L272.46-23.06L272.46-23.06Q275.27-22.15 276.26-22.15L276.26-22.15L276.26-22.15Q276.26-21.94 276.68-21.80L276.68-21.80L276.68-21.80Q277.10-22.43 277.10-22.99L277.10-22.99L277.10-24.33L277.10-24.33Q277.10-25.24 273.59-28.41L273.59-28.41L273.59-28.41Q271.97-30.02 269.93-30.23L269.93-30.23L267.54-30.66L267.54-30.66Q261.70-29.46 259.88-27.77L259.88-27.77L259.88-27.77Q259.10-26.30 258.05-25.17ZM258.82-29.39L258.82-29.39L258.82-29.25L258.96-29.25L258.96-29.25Q259.88-29.46 259.88-29.74L259.88-29.74L259.88-29.81L259.52-29.81L259.52-29.81Q259.17-29.81 258.82-29.39ZM275.63-28.41L275.63-28.41L275.63-28.41Q275.77-27.84 276.26-27.84L276.26-27.84L276.40-27.84L276.54-28.05L276.54-28.48L276.26-28.83L276.26-28.83Q275.63-28.83 275.63-28.41ZM257.77-28.05L257.48-28.05L257.34-27.84L257.34-27.77L257.48-27.77L257.77-27.98L257.77-28.05ZM277.52-27.35L277.38-27.49L277.10-27.49L277.10-27.49Q277.88-25.17 278.23-24.96L278.23-24.96L278.51-24.96L278.72-25.10L278.72-25.10Q278.16-27.35 277.52-27.35L277.52-27.35ZM258.12-26.23L258.12-26.23L258.12-26.23Q258.54-26.30 258.54-26.79L258.54-26.79L258.54-26.86L258.54-26.86Q258.12-26.72 258.12-26.23ZM279.98-24.33L279.77-24.33L279.56-24.19L279.56-23.70L279.77-23.41L279.77-23.41Q280.05-23.48 280.05-23.91L280.05-23.91L280.05-24.19L279.98-24.33ZM257.34-23.34L257.34-23.34L257.34-23.06L257.48-22.92L257.63-22.92L257.63-22.92Q258.12-23.13 258.47-23.70L258.47-23.70L258.47-23.91L258.12-23.91L258.12-23.91Q257.70-23.91 257.34-23.34ZM254.46-23.77L254.46-23.77L254.46-23.77Q253.90-23.20 253.48-20.95L253.48-20.95L253.62-20.95L253.62-20.95Q254.04-20.95 254.88-23.41L254.88-23.41L254.88-23.41Q254.74-23.77 254.46-23.77ZM261.63-22.92L261.63-22.92L261.63-22.71L261.63-22.71Q262.97-21.80 266.48-21.80L266.48-21.80L267.12-21.80L268.03-21.87L268.03-22.15L268.03-22.15Q265.15-22.78 261.63-22.92ZM274.50-20.88L274.50-21.09L274.29-21.09L274.29-20.88L274.50-20.88ZM260.93-20.53L260.93-20.53L260.93-20.39L260.93-20.39Q262.34-20.04 268.38-19.69L268.38-19.69L268.38-19.62L268.38-19.55L266.91-19.34L266.91-19.34Q266.91-19.13 268.73-19.13L268.73-19.13L268.73-19.13Q271.69-19.13 271.69-19.41L271.69-19.41L271.69-19.41Q271.69-20.11 260.93-20.53ZM254.11-19.90L253.83-20.04L253.48-20.04L253.48-19.62L253.48-19.62Q253.48-19.20 253.69-19.20L253.69-19.20L253.69-19.20Q254.04-19.20 254.11-19.90L254.11-19.90ZM259.52-19.83L259.52-19.90L259.17-19.83L259.17-19.41L259.52-19.41L259.52-19.69L259.52-19.83ZM257.27-19.34L257.27-19.34L257.27-19.27L257.34-19.27L258.54-19.41L258.54-19.55L258.33-19.83L258.12-19.83L258.12-19.83Q257.48-19.83 257.27-19.34ZM274.36-19.20L274.36-19.20L274.36-19.20Q274.36-18.91 275.63-18.91L275.63-18.91L276.26-18.98L276.26-19.13L276.26-19.13Q276.26-19.41 274.92-19.41L274.92-19.41L274.92-19.41Q274.36-19.27 274.36-19.20ZM253.48-17.37L253.48-17.37L253.48-17.16L253.48-17.09L253.48-17.09Q253.41-16.88 253.41-16.10L253.41-16.10L253.41-15.82L253.41-15.82Q253.41-14.55 254.11-13.57L254.11-13.57L254.18-13.57L254.18-13.57Q254.18-16.95 253.48-17.37ZM254.88-11.11L254.74-11.25L254.53-11.25L254.53-11.11L254.74-10.97L254.88-10.97L254.88-11.11ZM255.23-10.05L255.23-10.05L255.16-9.98L255.16-9.84L255.16-9.84Q255.45-8.72 256.01-8.72L256.01-8.72L256.01-8.79L256.01-8.93L256.01-8.93Q256.01-9.49 255.23-10.05ZM278.16-9.42L278.16-9.42L278.30-9.21L278.65-9.21L278.65-9.21Q279.07-9.21 279.14-9.49L279.14-9.49L278.86-9.77L278.79-9.77L278.79-9.77Q278.30-9.77 278.16-9.42ZM276.54-5.34L276.54-5.34L276.68-5.27L276.75-5.27L276.75-5.27Q277.52-5.27 277.73-6.19L277.73-6.19L277.73-6.33L277.73-6.33Q276.96-6.33 276.54-5.34ZM281.46-5.48L281.46-5.48L281.53-5.41L281.74-5.41L281.74-5.41Q282.16-5.70 282.16-6.19L282.16-6.19L281.95-6.19L281.95-6.19Q281.46-5.91 281.46-5.48ZM283.92-6.19L283.92-6.19L283.85-6.19L283.85-6.05L283.85-6.05Q284.06-5.20 284.48-5.20L284.48-5.20L284.55-5.20L284.70-5.34L284.70-5.41L284.70-5.41Q284.55-6.19 283.92-6.19ZM279.84-4.71L279.84-4.71L280.05-4.57L280.05-4.57Q281.11-4.92 281.11-5.48L281.11-5.48L281.11-5.63L281.04-5.63L281.04-5.63Q280.05-5.63 279.84-4.71ZM274.36-3.16L274.36-3.16L274.50-3.16L274.50-3.16Q275.06-3.38 275.13-3.87L275.13-3.87L275.06-3.94L275.06-3.94Q274.36-3.52 274.36-3.16ZM278.51-2.81L278.51-2.81L278.79-2.81L278.79-2.81Q279.49-3.45 279.49-3.73L279.49-3.73L279.42-3.73L279.42-3.73Q278.51-3.45 278.51-2.81ZM258.54-2.18L258.54-2.18L258.33-2.18L258.33-1.90L258.33-1.90Q258.47-1.55 259.52-1.13L259.52-1.13L259.80-0.91L259.80-0.91Q259.03-2.11 258.54-2.18ZM263.46-1.90L263.46-1.90L263.39-1.90L263.39-1.83L263.39-1.83Q263.39-1.55 264.87-1.20L264.87-1.20L264.94-1.27L264.94-1.41L264.94-1.41Q264.02-1.90 263.46-1.90ZM267.61-0.91L267.61-1.13L267.40-1.13L267.40-0.91L267.61-0.91ZM274.92-0.07L274.92-0.07L274.92-0.07Q275.63-0.07 276.05-1.13L276.05-1.13L275.84-1.13L275.84-1.13Q274.92-0.63 274.92-0.07ZM270 0.63L270 0.63L268.52 0.49L268.24 0.49L268.24 0.49Q267.61 0.49 267.54 0.77L267.54 0.77L267.54 0.91L267.82 1.13L269.09 1.13L269.09 1.13Q271.27 1.13 274.22 0.35L274.22 0.35L274.22 0.35Q274.08-0.07 273.38-0.07L273.38-0.07L273.02-0.07L273.02-0.07Q271.34-0.07 270 0.63ZM314.93-32.77L314.93-32.77L314.93-32.77Q317.67-32.77 319.57-28.90L319.57-28.90L319.57-28.90Q319.92-28.90 320.55-27.98L320.55-27.98L321.47-22.78L321.47-22.78Q320.98-21.94 317.74-21.94L317.74-21.94L317.04-21.94L317.04-21.94Q314.44-22.36 314.44-23.70L314.44-23.70L314.44-23.70Q314.44-24.68 312.82-26.44L312.82-26.44L312.82-26.44Q312.61-26.79 309.80-26.79L309.80-26.79L309.80-26.79Q307.13-26.79 303.33-25.38L303.33-25.38L303.33-25.38Q300.66-22.57 299.81-21.02L299.81-21.02L299.81-21.02Q300.30-9 300.16-5.98L300.16-5.98L300.16-5.98Q300.16-5.34 301.01-5.34L301.01-5.34L302.70-5.34L302.70-5.34Q303.82-5.27 303.82-4.92L303.82-4.92L303.82-4.85L304.10-3.94L303.96 0L303.54 0.56L300.23 0.91L299.95 0.91L298.55 1.34L298.55 1.34Q290.46 1.05 290.46 0.70L290.46 0.70L290.46 0.70Q289.05 0.70 289.05-0.56L289.05-0.56L289.05-0.56Q288.91-1.83 288.91-3.16L288.91-3.16L288.91-3.16Q288.91-4.50 291.66-4.92L291.66-4.92L291.66-4.92Q291.66-5.48 293.55-5.48L293.55-5.48L293.77-5.55L293.77-5.70L293.34-24.96L293.34-24.96Q293.34-26.72 292.43-26.72L292.43-26.72L292.01-26.72L292.01-26.72Q291.16-26.72 289.20-25.95L289.20-25.95L289.05-26.09L289.05-26.23L289.05-26.23Q289.05-26.37 289.62-26.58L289.62-26.58L289.62-26.72L289.62-26.72Q288.91-26.72 288.91-30.66L288.91-30.66L288.91-30.66Q288.77-30.66 288.70-31.92L288.70-31.92L288.70-31.92Q291.52-34.10 294.61-34.10L294.61-34.10L296.37-34.10L296.37-34.10Q297.42-34.10 299.95-33.40L299.95-33.40L299.95-33.19L299.95-33.19Q299.32-32.20 299.32-31.78L299.32-31.78L299.32-31.29L299.32-31.29Q305.02-33.82 314.93-32.77ZM296.51-22.15L296.51-22.15L296.51-21.80L296.51-21.80Q296.86-21.09 296.86-20.32L296.86-20.32L296.86-20.32Q296.79-20.04 296.65-17.44L296.65-17.44L296.79-14.63L296.86-14.63L296.86-14.63Q297.07-14.63 297.42-21.16L297.42-21.16L297.42-21.16Q297.56-21.16 297.56-22.57L297.56-22.57L297.56-22.57Q297.49-23.20 297.21-23.20L297.21-23.20L297.07-23.20L297.07-23.20Q296.51-22.85 296.51-22.15ZM292.29-0.91L292.29-0.91L291.38-0.84L291.38-0.70L291.38-0.70Q291.38-0.35 293.41-0.35L293.41-0.35L295.52-0.35L296.02-0.42L296.02-0.42Q296.02-0.77 292.29-0.91ZM304.45-29.74L304.45-29.74L304.45-29.60L304.45-29.60Q305.09-29.60 306.14-31.64L306.14-31.64L306.14-31.99L306.07-31.99L306.07-31.99Q304.24-31.43 304.45-29.74ZM313.52-27.49L313.52-27.49L313.88-27.49L313.88-27.49Q314.23-27.56 315.21-29.18L315.21-29.18L315.21-29.25L315.21-29.25Q315.21-29.39 314.93-29.39L314.93-29.39L314.93-29.39Q313.73-28.83 313.73-27.91L313.73-27.91L313.73-27.91Q313.66-27.91 313.52-27.49ZM297.56-24.68L297.35-25.88L297.07-25.88L296.72-24.40L296.72-24.40Q296.72-24.05 297.14-23.70L297.14-23.70L297.21-23.70L297.21-23.70Q297.42-23.70 297.56-24.68L297.56-24.68ZM307.13-31.29L307.13-31.29L307.48-29.88L308.04-29.88L308.04-31.36L307.83-31.57L307.62-31.57L307.62-31.57Q307.13-31.50 307.13-31.29ZM293.20-2.04L291.80-2.04L291.66-1.90L291.73-1.76L295.59-1.76L295.59-1.97L293.20-2.04ZM290.53-31.36L290.53-31.36L290.53-31.36Q291.09-30.80 291.73-30.80L291.73-30.80L291.80-30.94L291.80-31.43L291.52-31.78L291.52-31.78Q290.53-31.64 290.53-31.36ZM297.63-1.55L297.63-1.55L297.84-1.34L298.90-1.34L299.18-1.62L299.18-1.62Q299.18-1.76 298.83-1.90L298.83-1.90L298.83-1.90Q297.63-1.76 297.63-1.55ZM317.88-29.46L317.88-29.46L317.67-29.46L317.67-29.32L317.67-29.32Q318.23-28.76 318.66-28.76L318.66-28.76L318.87-28.76L318.87-28.90L318.87-28.90Q318.30-29.46 317.88-29.46ZM294.61-32.13L293.77-32.77L293.55-32.77L293.55-32.48L293.98-31.99L294.61-31.99L294.61-32.13ZM291.66-28.62L291.66-28.62L291.66-28.48L291.87-28.48L291.87-28.48Q292.64-28.48 292.71-28.76L292.71-28.76L292.57-28.97L292.43-28.97L292.43-28.97Q291.80-28.97 291.66-28.62ZM310.08-31.92L309.66-31.92L308.81-31.85L308.81-31.78L308.95-31.57L309.66-31.57L309.66-31.57Q310.15-31.57 310.22-31.85L310.22-31.85L310.08-31.92ZM298.69-9.28L298.55-9.28L298.27-9.07L298.27-8.51L298.55-8.51L298.83-8.72L298.83-9.14L298.69-9.28ZM290.11-1.13L290.11-1.62L289.83-1.90L289.69-1.62L289.69-1.34L289.83-1.13L290.11-1.13ZM300.38-28.13L299.95-28.20L299.67-28.13L299.67-27.91L299.95-27.70L300.16-27.70L300.38-27.91L300.38-28.13ZM311.06-31.99L311.06-31.99L311.06-31.85L311.55-31.85L311.84-32.06L311.63-32.27L311.63-32.27Q311.06-32.13 311.06-31.99ZM315.98-31.99L315.70-31.99L315.56-31.85L315.56-31.78L315.70-31.57L315.98-31.57L316.13-31.78L316.13-31.85L315.98-31.99ZM298.83-32.55L298.62-32.70L298.27-32.55L298.27-32.27L298.62-32.27L298.83-32.55ZM298.62-31.43L298.41-31.43L298.13-31.22L298.13-31.08L298.27-30.94L298.62-31.22L298.62-31.43ZM315.49-25.59L315.49-25.59L315.49-25.45L315.63-25.45L315.91-25.66L315.91-25.88L315.84-25.88L315.84-25.88Q315.49-25.66 315.49-25.59ZM313.31-31.78L313.10-31.78L312.82-31.57L312.82-31.50L313.17-31.50L313.31-31.64L313.31-31.78ZM298.55-7.45L298.55-7.73L298.41-7.73L298.41-7.45L298.55-7.45ZM332.16-50.63L332.16-50.63L332.58-50.63L332.58-50.63Q334.48-50.63 335.88-49.01L335.88-49.01L335.74-43.80L335.74-43.17L336.30-33.82L336.30-33.82Q336.30-29.39 335.32-26.23L335.32-26.23L335.32-25.10L335.53-24.26L335.18-22.92L335.18-21.87L335.18-21.87Q335.18-20.53 335.60-19.83L335.60-19.83L335.60-19.83Q335.39-18.07 335.04-18.07L335.04-18.07L335.04-18.07Q334.76-18.35 334.41-18.35L334.41-18.35L334.41-18.35Q331.73-16.73 331.73-16.52L331.73-16.52L331.80-16.45L331.80-16.45Q334.90-16.80 334.90-17.23L334.90-17.23L335.25-17.23L335.60-16.80L335.60-16.80Q335.60-15.82 329.77-15.19L329.77-15.19L329.77-15.19Q329.41-15.19 329.20-15.54L329.20-15.54L329.20-15.54Q329.20-16.10 330.12-16.10L330.12-16.10L330.40-16.10L330.40-16.31L330.40-16.31Q330.40-16.52 329.48-16.80L329.48-16.80L329.41-17.37L329.41-17.37Q329.41-17.65 330.40-18L330.40-18L330.40-18Q330.68-18.56 330.68-18.84L330.68-18.84L330.68-18.91L330.68-18.91Q330.68-19.27 329.20-19.34L329.20-19.34L329.20-19.34Q328.78-19.34 328.36-36.56L328.36-36.56L328.36-36.56Q328.08-38.88 328.08-43.73L328.08-43.73L328.08-45.77L328.08-45.77Q328.08-47.04 329.20-47.74L329.20-47.74L328.36-48.87L328.36-48.87Q328.36-49.22 329.20-49.43L329.20-49.43L329.20-49.50L329.20-49.71L329.20-49.78L329.20-49.78Q329.20-50.63 332.16-50.63ZM330.61-49.01L330.26-49.08L329.98-49.01L329.98-48.87L330.19-48.73L330.47-48.73L330.61-48.87L330.61-49.01ZM333.77-47.74L333.77-47.74L333.77-47.67L333.77-47.67Q333.77-46.97 334.20-46.83L334.20-46.83L334.27-46.83L334.27-46.83Q334.69-46.83 334.76-47.95L334.76-47.95L334.76-47.95Q334.76-48.38 334.41-48.38L334.41-48.38L334.41-48.38Q333.77-48.38 333.77-47.74ZM333.07-45.77L333.07-45.91L332.58-45.98L332.51-45.91L332.51-45.84L332.72-45.56L332.86-45.56L333.07-45.77ZM332.72-45.07L332.72-45.21L332.58-45.21L332.51-45.07L332.44-42.40L332.44-40.71L332.44-40.71Q332.44-38.46 332.86-38.46L332.86-38.46L333-38.46L332.86-41.63L332.86-41.63Q332.86-42.61 333.28-42.89L333.28-42.89L333.28-43.10L333.28-43.10Q332.72-43.10 332.72-45.07L332.72-45.07ZM329.20-43.31L329.20-43.31L329.20-43.17L329.20-42.68L329.20-41.77L329.41-41.77L329.41-41.91L329.48-42.61L329.48-42.61Q329.41-43.31 329.20-43.31ZM329.48-40.85L329.41-40.92L329.20-40.92L329.20-37.41L329.34-36.84L329.55-36.84L329.55-36.84Q329.84-37.48 329.91-39.16L329.91-39.16L329.48-40.85ZM333.56-37.05L333.56-37.05L333.56-36.56L333.77-36.35L333.91-36.35L333.98-36.84L333.98-37.13L333.91-37.62L333.77-37.62L333.77-37.62Q333.56-37.55 333.56-37.05ZM329.70-36L329.48-36L329.34-35.79L329.34-35.51L329.48-35.51L329.77-35.72L329.70-36ZM331.52-35.23L331.45-35.23L331.24-34.95L331.24-34.88L331.31-34.66L331.73-34.66L331.73-35.09L331.52-35.23ZM331.31-31.57L331.31-31.57L331.45-31.29L331.52-31.29L331.52-31.29Q331.80-31.29 331.80-32.48L331.80-32.48L331.80-33.96L331.80-33.96Q331.38-33.96 331.31-31.57ZM334.48-33.33L334.48-33.61L334.13-33.61L333.98-33.19L334.13-33.12L334.20-33.12L334.48-33.33ZM330.26-26.93L330.26-26.93L330.12-26.51L329.98-23.20L329.98-23.20Q330.05-22.15 330.26-22.15L330.26-22.15L330.26-22.15Q331.45-22.92 331.45-23.77L331.45-23.77L331.45-24.05L331.45-24.05Q331.45-24.19 330.96-24.40L330.96-24.40L330.96-24.40Q330.75-24.47 330.61-26.37L330.61-26.37L330.61-26.65L330.47-26.72L330.47-26.72Q330.47-26.93 330.26-26.93ZM332.37-24.47L332.16-24.47L331.88-24.26L331.95-23.91L332.16-23.91L332.37-24.19L332.37-24.47ZM330.47-21.16L330.47-21.16L330.47-21.09L330.61-21.09L330.61-21.09Q330.96-21.23 330.96-21.66L330.96-21.66L330.96-21.80L330.82-21.80L330.82-21.80Q330.61-21.80 330.47-21.16ZM333.42-20.11L333.42-20.11L333.42-19.90L333.49-19.90L333.49-19.90Q334.69-19.90 334.83-20.88L334.83-20.88L334.83-21.16L334.62-21.30L334.48-21.30L334.48-21.30Q334.27-21.30 333.42-20.11ZM330.61-7.95L330.61-7.95L332.02-8.30L332.02-8.30Q333.49-7.73 335.88-4.57L335.88-4.57L335.88-4.43L335.88-4.43Q335.88-3.45 331.95-0.14L331.95-0.14L331.95-0.07L333.14 0.14L333.14 0.35L331.95 0.49L331.95 0.49Q330.12 0.49 327.45-1.48L327.45-1.48L327.45-1.48Q326.60-2.67 326.60-3.59L326.60-3.59L326.60-3.59Q326.60-6.54 330.61-7.95ZM331.95-6.61L331.66-6.61L331.45-6.47L331.45-6.47Q331.45-5.98 333-5.98L333-5.98L333.07-5.98L333.07-6.19L333.07-6.19Q333.07-6.54 331.95-6.61L331.95-6.61ZM330.96-4.78L330.96-4.78L330.96-4.57L331.31-4.57L331.31-4.57Q332.23-4.64 332.23-4.92L332.23-4.92L332.02-5.13L331.52-5.13L331.52-5.13Q330.96-4.99 330.96-4.78ZM328.78-4.43L328.78-4.43L329.06-4.08L329.20-4.15L329.20-4.71L329.06-4.92L329.06-4.92Q328.78-4.85 328.78-4.43ZM332.37-3.73L332.16-3.73L331.88-3.45L331.88-3.38L332.02-3.16L332.23-3.16L332.51-3.45L332.51-3.59L332.37-3.73Z"></path></g><g id="" class="logo--name svgSloganText_1 sloganBox" transform="scale(1) translate(225.25999784469604,344.4499992370605)" fill="#f6f9c1"><path d="M6.53 0.05L6.53 0.05Q5.57 0.05 5.57-0.48L5.57-0.48L5.57-14.98L0.96-14.98L0.96-14.98Q0.72-14.98 0.60-15.14L0.60-15.14L0.60-15.14Q0.48-15.31 0.48-15.70L0.48-15.70L0.48-16.08L0.48-16.08Q0.48-16.46 0.60-16.63L0.60-16.63L0.60-16.63Q0.72-16.80 0.96-16.80L0.96-16.80L12.22-16.80L12.22-16.80Q12.48-16.80 12.59-16.63L12.59-16.63L12.59-16.63Q12.70-16.46 12.70-16.08L12.70-16.08L12.70-15.70L12.70-15.70Q12.70-15.31 12.59-15.14L12.59-15.14L12.59-15.14Q12.48-14.98 12.22-14.98L12.22-14.98L7.68-14.98L7.68-0.48L7.68-0.48Q7.68 0.05 6.72 0.05L6.72 0.05L6.53 0.05ZM16.34 0.05L16.34 0.05Q15.38 0.05 15.38-0.48L15.38-0.48L15.38-17.52L15.38-17.52Q15.38-18.05 16.34-18.05L16.34-18.05L16.44-18.05L16.44-18.05Q17.40-18.05 17.40-17.52L17.40-17.52L17.40-11.04L17.40-11.04Q18.12-11.76 19.07-12.23L19.07-12.23L19.07-12.23Q20.02-12.70 21.07-12.70L21.07-12.70L21.07-12.70Q22.58-12.70 23.74-11.84L23.74-11.84L23.74-11.84Q24.89-10.99 24.89-8.81L24.89-8.81L24.89-0.48L24.89-0.48Q24.89 0.05 23.93 0.05L23.93 0.05L23.83 0.05L23.83 0.05Q22.87 0.05 22.87-0.48L22.87-0.48L22.87-8.62L22.87-8.62Q22.87-9.70 22.25-10.32L22.25-10.32L22.25-10.32Q21.62-10.94 20.42-10.94L20.42-10.94L20.42-10.94Q19.63-10.94 18.96-10.57L18.96-10.57L18.96-10.57Q18.29-10.20 17.84-9.76L17.84-9.76L17.84-9.76Q17.40-9.31 17.40-9.26L17.40-9.26L17.40-0.48L17.40-0.48Q17.40 0.05 16.44 0.05L16.44 0.05L16.34 0.05ZM33.94 0.14L33.94 0.14Q30.94 0.14 29.50-1.42L29.50-1.42L29.50-1.42Q28.06-2.98 28.06-6.19L28.06-6.19L28.06-6.19Q28.06-9.38 29.47-11.04L29.47-11.04L29.47-11.04Q30.89-12.70 33.65-12.70L33.65-12.70L33.65-12.70Q36.10-12.70 37.34-11.10L37.34-11.10L37.34-11.10Q38.59-9.50 38.59-6.43L38.59-6.43L38.59-6.43Q38.59-6.22 38.30-5.83L38.30-5.83L38.30-5.83Q38.02-5.45 37.80-5.45L37.80-5.45L30.22-5.45L30.22-5.45Q30.36-3.46 31.25-2.52L31.25-2.52L31.25-2.52Q32.14-1.58 33.91-1.58L33.91-1.58L33.91-1.58Q34.92-1.58 35.65-1.84L35.65-1.84L35.65-1.84Q36.38-2.09 36.86-2.34L36.86-2.34L36.86-2.34Q37.34-2.59 37.42-2.59L37.42-2.59L37.42-2.59Q37.66-2.59 37.96-2.11L37.96-2.11L37.96-2.11Q38.26-1.63 38.26-1.39L38.26-1.39L38.26-1.39Q38.26-1.10 37.66-0.73L37.66-0.73L37.66-0.73Q37.06-0.36 36.06-0.11L36.06-0.11L36.06-0.11Q35.06 0.14 33.94 0.14L33.94 0.14ZM30.22-7.18L36.46-7.18L36.46-7.18Q36.46-10.97 33.58-10.97L33.58-10.97L33.58-10.97Q30.48-10.97 30.22-7.18L30.22-7.18ZM51.10 0.14L51.10 0.14Q49.90 0.14 48.95-0.59L48.95-0.59L48.95-0.59Q48.00-1.32 48.00-3.17L48.00-3.17L48.00-10.82L46.80-10.82L46.80-10.82Q46.56-10.82 46.44-10.99L46.44-10.99L46.44-10.99Q46.32-11.16 46.32-11.54L46.32-11.54L46.32-11.83L46.32-11.83Q46.32-12.22 46.44-12.38L46.44-12.38L46.44-12.38Q46.56-12.55 46.80-12.55L46.80-12.55L48.00-12.55L48.29-15.07L48.29-15.07Q48.36-15.60 49.06-15.60L49.06-15.60L49.30-15.60L49.30-15.60Q50.02-15.60 50.02-15.07L50.02-15.07L50.02-12.55L52.03-12.55L52.03-12.55Q52.30-12.55 52.40-12.38L52.40-12.38L52.40-12.38Q52.51-12.22 52.51-11.83L52.51-11.83L52.51-11.54L52.51-11.54Q52.51-11.16 52.40-10.99L52.40-10.99L52.40-10.99Q52.30-10.82 52.03-10.82L52.03-10.82L50.02-10.82L50.02-3.36L50.02-3.36Q50.02-2.35 50.36-1.97L50.36-1.97L50.36-1.97Q50.71-1.58 51.31-1.58L51.31-1.58L51.31-1.58Q51.77-1.58 52.00-1.64L52.00-1.64L52.00-1.64Q52.22-1.70 52.34-1.70L52.34-1.70L52.34-1.70Q52.56-1.70 52.70-1.26L52.70-1.26L52.70-1.26Q52.85-0.82 52.85-0.58L52.85-0.58L52.85-0.58Q52.85 0.14 51.10 0.14L51.10 0.14ZM58.92 0.14L58.92 0.14Q57.07 0.14 55.94-0.77L55.94-0.77L55.94-0.77Q54.82-1.68 54.82-3.46L54.82-3.46L54.82-3.46Q54.82-5.35 55.96-6.30L55.96-6.30L55.96-6.30Q57.10-7.25 58.75-7.52L58.75-7.52L58.75-7.52Q60.41-7.80 62.78-7.82L62.78-7.82L62.78-8.95L62.78-8.95Q62.78-9.84 62.16-10.40L62.16-10.40L62.16-10.40Q61.54-10.97 60.14-10.97L60.14-10.97L60.14-10.97Q59.09-10.97 58.30-10.72L58.30-10.72L58.30-10.72Q57.50-10.46 56.98-10.21L56.98-10.21L56.98-10.21Q56.45-9.96 56.40-9.96L56.40-9.96L56.40-9.96Q56.16-9.96 55.86-10.44L55.86-10.44L55.86-10.44Q55.56-10.92 55.56-11.16L55.56-11.16L55.56-11.16Q55.56-11.47 56.20-11.83L56.20-11.83L56.20-11.83Q56.83-12.19 57.89-12.44L57.89-12.44L57.89-12.44Q58.94-12.70 60.07-12.70L60.07-12.70L60.07-12.70Q62.30-12.70 63.55-11.70L63.55-11.70L63.55-11.70Q64.80-10.70 64.80-8.93L64.80-8.93L64.80-3.55L64.80-3.55Q64.80-1.97 64.94-1.28L64.94-1.28L64.94-1.28Q65.09-0.60 65.09-0.53L65.09-0.53L65.09-0.53Q65.09-0.24 64.63-0.11L64.63-0.11L64.63-0.11Q64.18 0.02 63.79 0.02L63.79 0.02L63.79 0.02Q63.46 0.02 63.30-0.35L63.30-0.35L63.30-0.35Q63.14-0.72 63.06-1.13L63.06-1.13L63.06-1.13Q62.98-1.54 62.95-1.66L62.95-1.66L62.95-1.66Q61.32 0.14 58.92 0.14L58.92 0.14ZM59.02-1.61L59.02-1.61Q60.19-1.61 61.04-2.04L61.04-2.04L61.04-2.04Q61.90-2.47 62.78-3.26L62.78-3.26L62.78-6.10L62.78-6.10Q60.98-6.07 59.84-5.95L59.84-5.95L59.84-5.95Q58.70-5.83 57.84-5.28L57.84-5.28L57.84-5.28Q56.98-4.73 56.98-3.58L56.98-3.58L56.98-3.58Q56.98-2.62 57.49-2.11L57.49-2.11L57.49-2.11Q58.01-1.61 59.02-1.61L59.02-1.61ZM71.38 0.22L71.38 0.22Q70.34 0.22 69.47-0.04L69.47-0.04L69.47-0.04Q68.59-0.29 68.08-0.65L68.08-0.65L68.08-0.65Q67.56-1.01 67.56-1.30L67.56-1.30L67.56-1.30Q67.56-1.54 67.86-2.02L67.86-2.02L67.86-2.02Q68.16-2.50 68.40-2.50L68.40-2.50L68.40-2.50Q68.45-2.50 68.86-2.23L68.86-2.23L68.86-2.23Q69.26-1.97 69.88-1.75L69.88-1.75L69.88-1.75Q70.49-1.54 71.23-1.54L71.23-1.54L71.23-1.54Q73.58-1.54 73.58-3.48L73.58-3.48L73.58-3.48Q73.58-4.30 73.06-4.78L73.06-4.78L73.06-4.78Q72.53-5.26 71.18-5.64L71.18-5.64L71.18-5.64Q69.29-6.19 68.57-7.02L68.57-7.02L68.57-7.02Q67.85-7.85 67.85-9.24L67.85-9.24L67.85-9.24Q67.85-10.25 68.36-11.04L68.36-11.04L68.36-11.04Q68.88-11.83 69.78-12.28L69.78-12.28L69.78-12.28Q70.68-12.72 71.83-12.72L71.83-12.72L71.83-12.72Q73.06-12.72 74.03-12.41L74.03-12.41L74.03-12.41Q75-12.10 75-11.69L75-11.69L75-11.69Q75-11.38 74.72-10.88L74.72-10.88L74.72-10.88Q74.45-10.39 74.23-10.39L74.23-10.39L74.23-10.39Q74.16-10.42 73.60-10.72L73.60-10.72L73.60-10.72Q73.03-11.02 72.05-11.02L72.05-11.02L72.05-11.02Q71.14-11.02 70.52-10.61L70.52-10.61L70.52-10.61Q69.91-10.20 69.91-9.50L69.91-9.50L69.91-9.50Q69.91-8.69 70.34-8.21L70.34-8.21L70.34-8.21Q70.78-7.73 71.78-7.42L71.78-7.42L71.78-7.42Q73.32-6.94 74.12-6.47L74.12-6.47L74.12-6.47Q74.93-6 75.28-5.32L75.28-5.32L75.28-5.32Q75.62-4.63 75.62-3.53L75.62-3.53L75.62-3.53Q75.62-2.47 75.06-1.62L75.06-1.62L75.06-1.62Q74.50-0.77 73.52-0.28L73.52-0.28L73.52-0.28Q72.55 0.22 71.38 0.22L71.38 0.22ZM88.03-0.67L88.03-0.67Q88.25-0.43 88.25-0.29L88.25-0.29L88.25-0.29Q88.25-0.10 88.01-0.02L88.01-0.02L88.01-0.02Q87.77 0.05 87.19 0.05L87.19 0.05L87.10 0.05L87.10 0.05Q86.59 0.05 86.28-0.01L86.28-0.01L86.28-0.01Q85.97-0.07 85.80-0.26L85.80-0.26L81-5.95L80.90-5.95L80.90-0.48L80.90-0.48Q80.90 0.05 79.94 0.05L79.94 0.05L79.85 0.05L79.85 0.05Q78.89 0.05 78.89-0.48L78.89-0.48L78.89-17.52L78.89-17.52Q78.89-18.05 79.85-18.05L79.85-18.05L79.94-18.05L79.94-18.05Q80.90-18.05 80.90-17.52L80.90-17.52L80.90-6.79L81-6.79L85.58-12.26L85.58-12.26Q85.85-12.60 86.86-12.60L86.86-12.60L86.95-12.60L86.95-12.60Q87.36-12.60 87.58-12.52L87.58-12.52L87.58-12.52Q87.79-12.43 87.79-12.29L87.79-12.29L87.79-12.29Q87.79-12.07 87.55-11.81L87.55-11.81L83.09-6.53L88.03-0.67ZM109.68-12.70L109.68-12.70Q111.19-12.70 112.32-11.84L112.32-11.84L112.32-11.84Q113.45-10.99 113.45-8.81L113.45-8.81L113.45-0.48L113.45-0.48Q113.45 0.05 112.49 0.05L112.49 0.05L112.39 0.05L112.39 0.05Q111.43 0.05 111.43-0.48L111.43-0.48L111.43-8.62L111.43-8.62Q111.43-9.70 110.84-10.32L110.84-10.32L110.84-10.32Q110.26-10.94 109.13-10.94L109.13-10.94L109.13-10.94Q107.59-10.94 106.18-9.26L106.18-9.26L106.18-9.26Q106.20-9.10 106.20-8.78L106.20-8.78L106.20-0.48L106.20-0.48Q106.20 0.05 105.24 0.05L105.24 0.05L105.14 0.05L105.14 0.05Q104.18 0.05 104.18-0.48L104.18-0.48L104.18-8.62L104.18-8.62Q104.18-9.70 103.60-10.32L103.60-10.32L103.60-10.32Q103.01-10.94 101.88-10.94L101.88-10.94L101.88-10.94Q101.11-10.94 100.45-10.57L100.45-10.57L100.45-10.57Q99.79-10.20 99.37-9.77L99.37-9.77L99.37-9.77Q98.95-9.34 98.95-9.29L98.95-9.29L98.95-0.48L98.95-0.48Q98.95 0.05 97.99 0.05L97.99 0.05L97.90 0.05L97.90 0.05Q96.94 0.05 96.94-0.48L96.94-0.48L96.94-8.90L96.94-8.90Q96.94-10.49 96.79-11.17L96.79-11.17L96.79-11.17Q96.65-11.86 96.65-11.93L96.65-11.93L96.65-11.93Q96.65-12.22 97.10-12.35L97.10-12.35L97.10-12.35Q97.56-12.48 97.94-12.48L97.94-12.48L97.94-12.48Q98.28-12.48 98.44-12.13L98.44-12.13L98.44-12.13Q98.59-11.78 98.68-11.40L98.68-11.40L98.68-11.40Q98.76-11.02 98.78-10.90L98.78-10.90L98.78-10.90Q99.46-11.66 100.40-12.18L100.40-12.18L100.40-12.18Q101.35-12.70 102.43-12.70L102.43-12.70L102.43-12.70Q103.51-12.70 104.46-12.25L104.46-12.25L104.46-12.25Q105.41-11.81 105.86-10.70L105.86-10.70L105.86-10.70Q106.61-11.57 107.60-12.13L107.60-12.13L107.60-12.13Q108.60-12.70 109.68-12.70L109.68-12.70ZM120.53 0.14L120.53 0.14Q118.68 0.14 117.55-0.77L117.55-0.77L117.55-0.77Q116.42-1.68 116.42-3.46L116.42-3.46L116.42-3.46Q116.42-5.35 117.56-6.30L117.56-6.30L117.56-6.30Q118.70-7.25 120.36-7.52L120.36-7.52L120.36-7.52Q122.02-7.80 124.39-7.82L124.39-7.82L124.39-8.95L124.39-8.95Q124.39-9.84 123.77-10.40L123.77-10.40L123.77-10.40Q123.14-10.97 121.75-10.97L121.75-10.97L121.75-10.97Q120.70-10.97 119.90-10.72L119.90-10.72L119.90-10.72Q119.11-10.46 118.58-10.21L118.58-10.21L118.58-10.21Q118.06-9.96 118.01-9.96L118.01-9.96L118.01-9.96Q117.77-9.96 117.47-10.44L117.47-10.44L117.47-10.44Q117.17-10.92 117.17-11.16L117.17-11.16L117.17-11.16Q117.17-11.47 117.80-11.83L117.80-11.83L117.80-11.83Q118.44-12.19 119.50-12.44L119.50-12.44L119.50-12.44Q120.55-12.70 121.68-12.70L121.68-12.70L121.68-12.70Q123.91-12.70 125.16-11.70L125.16-11.70L125.16-11.70Q126.41-10.70 126.41-8.93L126.41-8.93L126.41-3.55L126.41-3.55Q126.41-1.97 126.55-1.28L126.55-1.28L126.55-1.28Q126.70-0.60 126.70-0.53L126.70-0.53L126.70-0.53Q126.70-0.24 126.24-0.11L126.24-0.11L126.24-0.11Q125.78 0.02 125.40 0.02L125.40 0.02L125.40 0.02Q125.06 0.02 124.91-0.35L124.91-0.35L124.91-0.35Q124.75-0.72 124.67-1.13L124.67-1.13L124.67-1.13Q124.58-1.54 124.56-1.66L124.56-1.66L124.56-1.66Q122.93 0.14 120.53 0.14L120.53 0.14ZM120.62-1.61L120.62-1.61Q121.80-1.61 122.65-2.04L122.65-2.04L122.65-2.04Q123.50-2.47 124.39-3.26L124.39-3.26L124.39-6.10L124.39-6.10Q122.59-6.07 121.45-5.95L121.45-5.95L121.45-5.95Q120.31-5.83 119.45-5.28L119.45-5.28L119.45-5.28Q118.58-4.73 118.58-3.58L118.58-3.58L118.58-3.58Q118.58-2.62 119.10-2.11L119.10-2.11L119.10-2.11Q119.62-1.61 120.62-1.61L120.62-1.61ZM131.35 0.05L131.35 0.05Q130.39 0.05 130.39-0.48L130.39-0.48L130.39-8.90L130.39-8.90Q130.39-10.49 130.25-11.17L130.25-11.17L130.25-11.17Q130.10-11.86 130.10-11.93L130.10-11.93L130.10-11.93Q130.10-12.22 130.56-12.35L130.56-12.35L130.56-12.35Q131.02-12.48 131.40-12.48L131.40-12.48L131.40-12.48Q131.74-12.48 131.89-12.13L131.89-12.13L131.89-12.13Q132.05-11.78 132.13-11.40L132.13-11.40L132.13-11.40Q132.22-11.02 132.24-10.90L132.24-10.90L132.24-10.90Q133.01-11.74 133.99-12.22L133.99-12.22L133.99-12.22Q134.98-12.70 135.98-12.70L135.98-12.70L135.98-12.70Q137.81-12.70 138.85-11.66L138.85-11.66L138.85-11.66Q139.90-10.63 139.90-8.81L139.90-8.81L139.90-0.48L139.90-0.48Q139.90 0.05 138.94 0.05L138.94 0.05L138.84 0.05L138.84 0.05Q137.88 0.05 137.88-0.48L137.88-0.48L137.88-8.62L137.88-8.62Q137.88-9.72 137.24-10.33L137.24-10.33L137.24-10.33Q136.61-10.94 135.43-10.94L135.43-10.94L135.43-10.94Q134.62-10.94 133.81-10.49L133.81-10.49L133.81-10.49Q133.01-10.03 132.41-9.26L132.41-9.26L132.41-0.48L132.41-0.48Q132.41 0.05 131.45 0.05L131.45 0.05L131.35 0.05ZM146.98 0.14L146.98 0.14Q145.13 0.14 144.00-0.77L144.00-0.77L144.00-0.77Q142.87-1.68 142.87-3.46L142.87-3.46L142.87-3.46Q142.87-5.35 144.01-6.30L144.01-6.30L144.01-6.30Q145.15-7.25 146.81-7.52L146.81-7.52L146.81-7.52Q148.46-7.80 150.84-7.82L150.84-7.82L150.84-8.95L150.84-8.95Q150.84-9.84 150.22-10.40L150.22-10.40L150.22-10.40Q149.59-10.97 148.20-10.97L148.20-10.97L148.20-10.97Q147.14-10.97 146.35-10.72L146.35-10.72L146.35-10.72Q145.56-10.46 145.03-10.21L145.03-10.21L145.03-10.21Q144.50-9.96 144.46-9.96L144.46-9.96L144.46-9.96Q144.22-9.96 143.92-10.44L143.92-10.44L143.92-10.44Q143.62-10.92 143.62-11.16L143.62-11.16L143.62-11.16Q143.62-11.47 144.25-11.83L144.25-11.83L144.25-11.83Q144.89-12.19 145.94-12.44L145.94-12.44L145.94-12.44Q147.00-12.70 148.13-12.70L148.13-12.70L148.13-12.70Q150.36-12.70 151.61-11.70L151.61-11.70L151.61-11.70Q152.86-10.70 152.86-8.93L152.86-8.93L152.86-3.55L152.86-3.55Q152.86-1.97 153.00-1.28L153.00-1.28L153.00-1.28Q153.14-0.60 153.14-0.53L153.14-0.53L153.14-0.53Q153.14-0.24 152.69-0.11L152.69-0.11L152.69-0.11Q152.23 0.02 151.85 0.02L151.85 0.02L151.85 0.02Q151.51 0.02 151.36-0.35L151.36-0.35L151.36-0.35Q151.20-0.72 151.12-1.13L151.12-1.13L151.12-1.13Q151.03-1.54 151.01-1.66L151.01-1.66L151.01-1.66Q149.38 0.14 146.98 0.14L146.98 0.14ZM147.07-1.61L147.07-1.61Q148.25-1.61 149.10-2.04L149.10-2.04L149.10-2.04Q149.95-2.47 150.84-3.26L150.84-3.26L150.84-6.10L150.84-6.10Q149.04-6.07 147.90-5.95L147.90-5.95L147.90-5.95Q146.76-5.83 145.90-5.28L145.90-5.28L145.90-5.28Q145.03-4.73 145.03-3.58L145.03-3.58L145.03-3.58Q145.03-2.62 145.55-2.11L145.55-2.11L145.55-2.11Q146.06-1.61 147.07-1.61L147.07-1.61ZM160.85 5.09L160.85 5.09Q158.54 5.09 157.21 4.37L157.21 4.37L157.21 4.37Q155.88 3.65 155.88 2.11L155.88 2.11L155.88 2.11Q155.88 1.06 156.48 0.29L156.48 0.29L156.48 0.29Q157.08-0.48 158.06-0.89L158.06-0.89L158.09-0.94L158.09-0.94Q157.13-1.70 157.13-2.90L157.13-2.90L157.13-2.90Q157.13-4.46 158.47-5.40L158.47-5.40L158.47-5.40Q157.46-5.90 156.94-6.79L156.94-6.79L156.94-6.79Q156.41-7.68 156.41-8.78L156.41-8.78L156.41-8.78Q156.41-10.49 157.66-11.59L157.66-11.59L157.66-11.59Q158.90-12.70 161.14-12.70L161.14-12.70L161.14-12.70Q161.90-12.70 162.55-12.55L162.55-12.55L166.92-12.55L166.92-12.55Q167.18-12.55 167.29-12.38L167.29-12.38L167.29-12.38Q167.40-12.22 167.40-11.83L167.40-11.83L167.40-11.54L167.40-11.54Q167.40-11.16 167.29-10.99L167.29-10.99L167.29-10.99Q167.18-10.82 166.92-10.82L166.92-10.82L166.92-10.82Q165.94-10.82 165.24-10.90L165.24-10.90L165.22-10.85L165.22-10.85Q165.84-9.96 165.84-8.78L165.84-8.78L165.84-8.78Q165.84-7.06 164.60-5.95L164.60-5.95L164.60-5.95Q163.37-4.85 161.11-4.85L161.11-4.85L161.11-4.85Q159.98-4.85 159.41-4.45L159.41-4.45L159.41-4.45Q158.83-4.06 158.83-3.19L158.83-3.19L158.83-3.19Q158.83-2.57 159.23-2.24L159.23-2.24L159.23-2.24Q159.62-1.92 160.22-1.78L160.22-1.78L160.22-1.78Q160.82-1.63 161.90-1.51L161.90-1.51L161.90-1.51Q162.43-1.46 162.70-1.42L162.70-1.42L162.70-1.42Q164.42-1.20 165.37-0.61L165.37-0.61L165.37-0.61Q166.32-0.02 166.32 1.46L166.32 1.46L166.32 1.46Q166.32 3.22 164.93 4.15L164.93 4.15L164.93 4.15Q163.54 5.09 160.85 5.09L160.85 5.09ZM161.11-6.46L161.11-6.46Q162.43-6.46 163.21-7.00L163.21-7.00L163.21-7.00Q163.99-7.54 163.99-8.76L163.99-8.76L163.99-8.76Q163.99-11.09 161.11-11.09L161.11-11.09L161.11-11.09Q158.26-11.09 158.26-8.76L158.26-8.76L158.26-8.76Q158.26-6.46 161.11-6.46L161.11-6.46ZM161.11 3.46L161.11 3.46Q162.79 3.46 163.60 3.02L163.60 3.02L163.60 3.02Q164.40 2.59 164.40 1.68L164.40 1.68L164.40 1.68Q164.40 0.84 163.61 0.55L163.61 0.55L163.61 0.55Q162.82 0.26 161.23 0.10L161.23 0.10L161.23 0.10Q159.79-0.05 159.26-0.22L159.26-0.22L159.26-0.22Q157.68 0.46 157.68 1.73L157.68 1.73L157.68 1.73Q157.68 3.46 161.11 3.46L161.11 3.46ZM175.08 0.14L175.08 0.14Q172.08 0.14 170.64-1.42L170.64-1.42L170.64-1.42Q169.20-2.98 169.20-6.19L169.20-6.19L169.20-6.19Q169.20-9.38 170.62-11.04L170.62-11.04L170.62-11.04Q172.03-12.70 174.79-12.70L174.79-12.70L174.79-12.70Q177.24-12.70 178.49-11.10L178.49-11.10L178.49-11.10Q179.74-9.50 179.74-6.43L179.74-6.43L179.74-6.43Q179.74-6.22 179.45-5.83L179.45-5.83L179.45-5.83Q179.16-5.45 178.94-5.45L178.94-5.45L171.36-5.45L171.36-5.45Q171.50-3.46 172.39-2.52L172.39-2.52L172.39-2.52Q173.28-1.58 175.06-1.58L175.06-1.58L175.06-1.58Q176.06-1.58 176.80-1.84L176.80-1.84L176.80-1.84Q177.53-2.09 178.01-2.34L178.01-2.34L178.01-2.34Q178.49-2.59 178.56-2.59L178.56-2.59L178.56-2.59Q178.80-2.59 179.10-2.11L179.10-2.11L179.10-2.11Q179.40-1.63 179.40-1.39L179.40-1.39L179.40-1.39Q179.40-1.10 178.80-0.73L178.80-0.73L178.80-0.73Q178.20-0.36 177.20-0.11L177.20-0.11L177.20-0.11Q176.21 0.14 175.08 0.14L175.08 0.14ZM171.36-7.18L177.60-7.18L177.60-7.18Q177.60-10.97 174.72-10.97L174.72-10.97L174.72-10.97Q171.62-10.97 171.36-7.18L171.36-7.18ZM183.94 0.05L183.94 0.05Q182.98 0.05 182.98-0.48L182.98-0.48L182.98-8.90L182.98-8.90Q182.98-10.49 182.83-11.17L182.83-11.17L182.83-11.17Q182.69-11.86 182.69-11.93L182.69-11.93L182.69-11.93Q182.69-12.22 183.14-12.35L183.14-12.35L183.14-12.35Q183.60-12.48 183.98-12.48L183.98-12.48L183.98-12.48Q184.32-12.48 184.48-12.13L184.48-12.13L184.48-12.13Q184.63-11.78 184.72-11.40L184.72-11.40L184.72-11.40Q184.80-11.02 184.82-10.90L184.82-10.90L184.82-10.90Q186.10-12.70 187.61-12.70L187.61-12.70L187.61-12.70Q188.28-12.70 188.64-12.43L188.64-12.43L188.64-12.43Q189.00-12.17 189.00-11.76L189.00-11.76L189.00-11.76Q189.00-11.35 188.86-10.91L188.86-10.91L188.86-10.91Q188.71-10.46 188.52-10.46L188.52-10.46L188.52-10.46Q188.40-10.46 188.05-10.60L188.05-10.60L188.05-10.60Q187.70-10.73 187.20-10.73L187.20-10.73L187.20-10.73Q186.65-10.73 186.16-10.40L186.16-10.40L186.16-10.40Q185.66-10.08 185.33-9.70L185.33-9.70L185.33-9.70Q184.99-9.31 184.99-9.26L184.99-9.26L184.99-0.48L184.99-0.48Q184.99 0.05 184.03 0.05L184.03 0.05L183.94 0.05Z"></path></g></g></g></g></svg>
