<?xml version="1.0"?>
<svg xmlns="http://www.w3.org/2000/svg" xmlns:xlink="http://www.w3.org/1999/xlink" version="1.1" id="Capa_1" x="0px" y="0px" width="512px" height="512px" viewBox="0 0 31.645 31.645" style="enable-background:new 0 0 31.645 31.645;" xml:space="preserve"><g><g>
	<g>
		<path d="M13.384,23.674l-1.591-4.416l-6.948-6.967l0.004-0.005L2.62,10.057L0,12.677l2.229,2.229l0.003-0.002l6.907,6.904    L13.384,23.674z M1.801,13.502l-0.824-0.825l1.645-1.644l0.824,0.826L1.801,13.502z M10.214,20.333l1.031,0.185l0.01-1.334    l0.228,0.228l0.907,2.521l-0.649,0.649l-2.38-1.04l-0.314-0.314l1.406,0.084L10.214,20.333z" data-original="#000000" class="active-path" data-old_color="#E6E1E1" fill="#EFEDED"/>
		<path d="M24.193,10.345c-4.107,0-7.45,2.298-7.45,5.124c0,1.601,1.088,3.104,2.927,4.07l-1.432,2.499l0.617-0.095    c0.041-0.008,4.151-0.646,6.971-1.481c3.697-1.096,5.818-2.916,5.818-4.993C31.645,12.643,28.302,10.345,24.193,10.345z     M24.941,18.242h-1.61V16.71h1.61V18.242z M26.249,14.755c-0.062,0.148-0.144,0.27-0.244,0.368s-0.213,0.179-0.336,0.244    c-0.124,0.064-0.25,0.13-0.379,0.197c-0.088,0.046-0.16,0.093-0.217,0.14c-0.058,0.045-0.101,0.095-0.132,0.146    c-0.03,0.052-0.053,0.111-0.064,0.178c-0.014,0.067-0.02,0.144-0.02,0.232h-1.432c-0.005-0.077-0.008-0.175-0.008-0.294    c0-0.124,0.016-0.25,0.046-0.379c0.03-0.128,0.085-0.255,0.163-0.379c0.077-0.124,0.191-0.227,0.34-0.309    c0.062-0.032,0.135-0.065,0.217-0.101c0.082-0.037,0.162-0.077,0.235-0.121c0.075-0.043,0.138-0.096,0.188-0.159    c0.053-0.062,0.078-0.136,0.078-0.225c0-0.263-0.149-0.395-0.449-0.395c-0.186,0-0.317,0.067-0.395,0.202    c-0.078,0.134-0.107,0.287-0.093,0.457h-1.617c0.015-0.243,0.063-0.481,0.147-0.716c0.082-0.234,0.209-0.445,0.378-0.63    c0.17-0.187,0.388-0.337,0.653-0.453c0.267-0.116,0.59-0.175,0.972-0.175c0.376,0,0.692,0.051,0.952,0.151    c0.259,0.1,0.466,0.229,0.625,0.386c0.162,0.158,0.279,0.331,0.354,0.52c0.075,0.188,0.117,0.368,0.128,0.537    C26.342,14.417,26.311,14.609,26.249,14.755z" data-original="#000000" class="active-path" data-old_color="#E6E1E1" fill="#EFEDED"/>
		<path d="M7.454,9.652h4.156v1.344h6.09V9.652h4.155v0.189c0.338-0.076,0.686-0.136,1.041-0.179V8.61h-5.195V6.362h-1.645    c0.479-0.402,0.793-0.998,0.793-1.671c-0.002-1.21-0.987-2.193-2.196-2.193s-2.193,0.983-2.193,2.192    c0,0.673,0.313,1.269,0.792,1.671h-1.644V8.61H6.413v4.387l1.041,1.044V9.652z M14.654,3.539c0.635,0,1.151,0.516,1.151,1.151    c0,0.635-0.516,1.151-1.151,1.151c-0.635,0-1.151-0.516-1.151-1.151C13.503,4.055,14.02,3.539,14.654,3.539z" data-original="#000000" class="active-path" data-old_color="#E6E1E1" fill="#EFEDED"/>
		<path d="M21.855,28.107H7.454v-6.995L6.413,20.07v9.076h16.483v-7.282c-0.354,0.075-0.705,0.147-1.041,0.215V28.107z" data-original="#000000" class="active-path" data-old_color="#E6E1E1" fill="#EFEDED"/>
	</g>
</g></g> </svg>
